<svg width="259" height="890" viewBox="0 0 259 890" fill="none" xmlns="http://www.w3.org/2000/svg">
<path d="M28.5502 911.922L17.4727 911.922L17.4727 923L11.0204 923L11.0204 911.922L1.32098e-07 911.922L2.09041e-07 905.47L11.0204 905.47L11.0204 894.45L17.4727 894.45L17.4727 905.47L28.5502 905.47L28.5502 911.922Z" fill="white" fill-opacity="0.03"/>
<path d="M28.5502 876.235L17.4727 876.235L17.4727 887.312L11.0204 887.312L11.0204 876.235L5.5767e-07 876.235L6.34613e-07 869.782L11.0204 869.782L11.0204 858.762L17.4727 858.762L17.4727 869.782L28.5502 869.782L28.5502 876.235Z" fill="white" fill-opacity="0.03"/>
<path d="M28.5502 840.547L17.4727 840.547L17.4727 851.625L11.0204 851.625L11.0204 840.547L9.83241e-07 840.547L1.06019e-06 834.095L11.0204 834.095L11.0204 823.074L17.4727 823.074L17.4727 834.095L28.5502 834.095L28.5502 840.547Z" fill="white" fill-opacity="0.03"/>
<path d="M28.5502 804.859L17.4727 804.859L17.4727 815.937L11.0204 815.937L11.0204 804.859L1.40881e-06 804.859L1.48576e-06 798.407L11.0204 798.407L11.0204 787.387L17.4727 787.387L17.4727 798.407L28.5502 798.407L28.5502 804.859Z" fill="white" fill-opacity="0.03"/>
<path d="M28.5502 769.172L17.4727 769.172L17.4727 780.249L11.0204 780.249L11.0204 769.172L1.83439e-06 769.172L1.91133e-06 762.719L11.0204 762.719L11.0204 751.699L17.4727 751.699L17.4727 762.719L28.5502 762.719L28.5502 769.172Z" fill="white" fill-opacity="0.03"/>
<path d="M28.5502 733.484L17.4727 733.484L17.4727 744.561L11.0204 744.561L11.0204 733.484L2.25996e-06 733.484L2.3369e-06 727.031L11.0204 727.031L11.0204 716.011L17.4727 716.011L17.4727 727.031L28.5502 727.031L28.5502 733.484Z" fill="white" fill-opacity="0.03"/>
<path d="M28.5502 697.796L17.4727 697.796L17.4727 708.874L11.0204 708.874L11.0204 697.796L2.68553e-06 697.796L2.76247e-06 691.344L11.0204 691.344L11.0204 680.323L17.4727 680.323L17.4727 691.344L28.5502 691.344L28.5502 697.796Z" fill="white" fill-opacity="0.03"/>
<path d="M28.5502 662.108L17.4727 662.108L17.4727 673.186L11.0204 673.186L11.0204 662.108L3.1111e-06 662.108L3.18804e-06 655.656L11.0204 655.656L11.0204 644.636L17.4727 644.636L17.4727 655.656L28.5502 655.656L28.5502 662.108Z" fill="white" fill-opacity="0.03"/>
<path d="M28.5502 626.421L17.4727 626.421L17.4727 637.498L11.0204 637.498L11.0204 626.421L3.53667e-06 626.421L3.61362e-06 619.968L11.0204 619.968L11.0204 608.948L17.4727 608.948L17.4727 619.968L28.5502 619.968L28.5502 626.421Z" fill="white" fill-opacity="0.03"/>
<path d="M28.5502 590.733L17.4727 590.733L17.4727 601.81L11.0204 601.81L11.0204 590.733L3.96224e-06 590.733L4.03919e-06 584.281L11.0204 584.281L11.0204 573.26L17.4727 573.26L17.4727 584.281L28.5502 584.281L28.5502 590.733Z" fill="white" fill-opacity="0.03"/>
<path d="M28.5502 555.045L17.4727 555.045L17.4727 566.123L11.0204 566.123L11.0204 555.045L4.38782e-06 555.045L4.46476e-06 548.593L11.0204 548.593L11.0204 537.572L17.4727 537.572L17.4727 548.593L28.5502 548.593L28.5502 555.045Z" fill="white" fill-opacity="0.03"/>
<path d="M28.5502 519.357L17.4727 519.357L17.4727 530.435L11.0204 530.435L11.0204 519.357L4.81339e-06 519.357L4.89033e-06 512.905L11.0204 512.905L11.0204 501.885L17.4727 501.885L17.4727 512.905L28.5502 512.905L28.5502 519.357Z" fill="white" fill-opacity="0.03"/>
<path d="M28.5502 483.67L17.4727 483.67L17.4727 494.747L11.0204 494.747L11.0204 483.67L5.23896e-06 483.67L5.3159e-06 477.217L11.0204 477.217L11.0204 466.197L17.4727 466.197L17.4727 477.217L28.5502 477.217L28.5502 483.67Z" fill="white" fill-opacity="0.03"/>
<path d="M28.5502 447.982L17.4727 447.982L17.4727 459.06L11.0204 459.06L11.0204 447.982L5.66453e-06 447.982L5.74148e-06 441.53L11.0204 441.53L11.0204 430.509L17.4727 430.509L17.4727 441.53L28.5502 441.53L28.5502 447.982Z" fill="white" fill-opacity="0.03"/>
<path d="M28.5502 412.294L17.4727 412.294L17.4727 423.372L11.0204 423.372L11.0204 412.294L6.09011e-06 412.294L6.16705e-06 405.842L11.0204 405.842L11.0204 394.821L17.4727 394.821L17.4727 405.842L28.5502 405.842L28.5502 412.294Z" fill="white" fill-opacity="0.03"/>
<path d="M28.5502 376.607L17.4727 376.607L17.4727 387.684L11.0204 387.684L11.0204 376.607L6.51568e-06 376.607L6.59262e-06 370.154L11.0204 370.154L11.0204 359.134L17.4727 359.134L17.4727 370.154L28.5502 370.154L28.5502 376.607Z" fill="white" fill-opacity="0.03"/>
<path d="M28.5502 340.919L17.4727 340.919L17.4727 351.996L11.0204 351.996L11.0204 340.919L6.94125e-06 340.919L7.01819e-06 334.466L11.0204 334.466L11.0204 323.446L17.4727 323.446L17.4727 334.466L28.5502 334.466L28.5502 340.919Z" fill="white" fill-opacity="0.03"/>
<path d="M28.5502 305.231L17.4727 305.231L17.4727 316.309L11.0204 316.309L11.0204 305.231L7.36682e-06 305.231L7.44376e-06 298.779L11.0204 298.779L11.0204 287.758L17.4727 287.758L17.4727 298.779L28.5502 298.779L28.5502 305.231Z" fill="white" fill-opacity="0.03"/>
<path d="M28.5502 269.543L17.4727 269.543L17.4727 280.621L11.0204 280.621L11.0204 269.543L7.79239e-06 269.543L7.86934e-06 263.091L11.0204 263.091L11.0204 252.071L17.4727 252.071L17.4727 263.091L28.5502 263.091L28.5502 269.543Z" fill="white" fill-opacity="0.03"/>
<path d="M28.5502 233.856L17.4727 233.856L17.4727 244.933L11.0204 244.933L11.0204 233.856L8.21796e-06 233.856L8.29491e-06 227.403L11.0204 227.403L11.0204 216.383L17.4727 216.383L17.4727 227.403L28.5502 227.403L28.5502 233.856Z" fill="white" fill-opacity="0.03"/>
<path d="M28.5502 198.168L17.4727 198.168L17.4727 209.245L11.0204 209.245L11.0204 198.168L8.64354e-06 198.168L8.72048e-06 191.716L11.0204 191.716L11.0204 180.695L17.4727 180.695L17.4727 191.716L28.5502 191.716L28.5502 198.168Z" fill="white" fill-opacity="0.03"/>
<path d="M28.5502 162.48L17.4727 162.48L17.4727 173.558L11.0204 173.558L11.0204 162.48L9.06911e-06 162.48L9.14605e-06 156.028L11.0204 156.028L11.0204 145.007L17.4727 145.007L17.4727 156.028L28.5502 156.028L28.5502 162.48Z" fill="white" fill-opacity="0.03"/>
<path d="M28.5502 126.792L17.4727 126.792L17.4727 137.87L11.0204 137.87L11.0204 126.792L9.49468e-06 126.792L9.57162e-06 120.34L11.0204 120.34L11.0204 109.32L17.4727 109.32L17.4727 120.34L28.5502 120.34L28.5502 126.792Z" fill="white" fill-opacity="0.03"/>
<path d="M28.5502 91.1047L17.4727 91.1047L17.4727 102.182L11.0204 102.182L11.0204 91.1047L9.92025e-06 91.1047L9.9972e-06 84.6524L11.0204 84.6524L11.0204 73.6319L17.4727 73.6319L17.4727 84.6524L28.5502 84.6524L28.5502 91.1047Z" fill="white" fill-opacity="0.03"/>
<path d="M28.5502 55.4169L17.4727 55.4169L17.4727 66.4944L11.0204 66.4944L11.0204 55.4169L1.03458e-05 55.4169L1.04228e-05 48.9647L11.0204 48.9647L11.0204 37.9442L17.4727 37.9442L17.4727 48.9647L28.5502 48.9647L28.5502 55.4169Z" fill="white" fill-opacity="0.03"/>
<path d="M28.5502 19.7292L17.4727 19.7292L17.4727 30.8067L11.0204 30.8067L11.0204 19.7292L1.07714e-05 19.7292L1.08483e-05 13.2769L11.0204 13.2769L11.0204 2.25641L17.4727 2.25641L17.4727 13.2769L28.5502 13.2769L28.5502 19.7292Z" fill="white" fill-opacity="0.03"/>
<path d="M28.5502 -15.9584L17.4727 -15.9584L17.4727 -4.88104L11.0204 -4.88104L11.0204 -15.9584L1.1197e-05 -15.9584L1.12739e-05 -22.4108L11.0204 -22.4108L11.0204 -33.4312L17.4727 -33.4312L17.4727 -22.4108L28.5502 -22.4108L28.5502 -15.9584Z" fill="white" fill-opacity="0.03"/>
<path d="M61.8977 911.522L52.205 911.522L52.205 921.215L46.5592 921.215L46.5592 911.522L36.9163 911.522L36.9163 905.876L46.5592 905.876L46.5592 896.234L52.205 896.234L52.205 905.876L61.8977 905.876L61.8977 911.522Z" fill="white" fill-opacity="0.03"/>
<path d="M61.8977 875.835L52.205 875.835L52.205 885.527L46.5592 885.527L46.5592 875.835L36.9163 875.835L36.9163 870.189L46.5592 870.189L46.5592 860.546L52.205 860.546L52.205 870.189L61.8977 870.189L61.8977 875.835Z" fill="white" fill-opacity="0.03"/>
<path d="M61.8977 840.147L52.205 840.147L52.205 849.84L46.5592 849.84L46.5592 840.147L36.9163 840.147L36.9163 834.501L46.5592 834.501L46.5592 824.858L52.205 824.858L52.205 834.501L61.8977 834.501L61.8977 840.147Z" fill="white" fill-opacity="0.03"/>
<path d="M61.8977 804.459L52.205 804.459L52.205 814.152L46.5592 814.152L46.5592 804.459L36.9163 804.459L36.9163 798.813L46.5592 798.813L46.5592 789.17L52.205 789.17L52.205 798.813L61.8977 798.813L61.8977 804.459Z" fill="white" fill-opacity="0.03"/>
<path d="M61.8977 768.771L52.205 768.771L52.205 778.464L46.5592 778.464L46.5592 768.771L36.9163 768.771L36.9163 763.126L46.5592 763.126L46.5592 753.483L52.205 753.483L52.205 763.126L61.8977 763.126L61.8977 768.771Z" fill="white" fill-opacity="0.03"/>
<path d="M61.8977 733.084L52.205 733.084L52.205 742.776L46.5592 742.776L46.5592 733.084L36.9163 733.084L36.9163 727.438L46.5592 727.438L46.5592 717.795L52.205 717.795L52.205 727.438L61.8977 727.438L61.8977 733.084Z" fill="white" fill-opacity="0.03"/>
<path d="M61.8977 697.396L52.205 697.396L52.205 707.089L46.5592 707.089L46.5592 697.396L36.9163 697.396L36.9163 691.75L46.5592 691.75L46.5592 682.107L52.205 682.107L52.205 691.75L61.8977 691.75L61.8977 697.396Z" fill="white" fill-opacity="0.03"/>
<path d="M61.8977 661.708L52.205 661.708L52.205 671.401L46.5592 671.401L46.5592 661.708L36.9163 661.708L36.9163 656.062L46.5592 656.062L46.5592 646.419L52.205 646.419L52.205 656.062L61.8977 656.062L61.8977 661.708Z" fill="white" fill-opacity="0.03"/>
<path d="M61.8977 626.02L52.205 626.02L52.205 635.713L46.5592 635.713L46.5592 626.02L36.9163 626.02L36.9163 620.375L46.5592 620.375L46.5592 610.732L52.205 610.732L52.205 620.375L61.8977 620.375L61.8977 626.02Z" fill="white" fill-opacity="0.03"/>
<path d="M61.8977 590.333L52.205 590.333L52.205 600.025L46.5592 600.025L46.5592 590.333L36.9163 590.333L36.9163 584.687L46.5592 584.687L46.5592 575.044L52.205 575.044L52.205 584.687L61.8977 584.687L61.8977 590.333Z" fill="white" fill-opacity="0.03"/>
<path d="M61.8977 554.645L52.205 554.645L52.205 564.338L46.5592 564.338L46.5592 554.645L36.9163 554.645L36.9163 548.999L46.5592 548.999L46.5592 539.356L52.205 539.356L52.205 548.999L61.8977 548.999L61.8977 554.645Z" fill="white" fill-opacity="0.03"/>
<path d="M61.8977 518.957L52.205 518.957L52.205 528.65L46.5592 528.65L46.5592 518.957L36.9163 518.957L36.9163 513.311L46.5592 513.311L46.5592 503.669L52.205 503.669L52.205 513.311L61.8977 513.311L61.8977 518.957Z" fill="white" fill-opacity="0.03"/>
<path d="M61.8977 483.269L52.205 483.269L52.205 492.962L46.5592 492.962L46.5592 483.269L36.9163 483.269L36.9163 477.624L46.5592 477.624L46.5592 467.981L52.205 467.981L52.205 477.624L61.8977 477.624L61.8977 483.269Z" fill="white" fill-opacity="0.03"/>
<path d="M61.8977 447.582L52.205 447.582L52.205 457.274L46.5592 457.274L46.5592 447.582L36.9163 447.582L36.9163 441.936L46.5592 441.936L46.5592 432.293L52.205 432.293L52.205 441.936L61.8977 441.936L61.8977 447.582Z" fill="white" fill-opacity="0.03"/>
<path d="M61.8977 411.894L52.205 411.894L52.205 421.587L46.5592 421.587L46.5592 411.894L36.9163 411.894L36.9163 406.248L46.5592 406.248L46.5592 396.605L52.205 396.605L52.205 406.248L61.8977 406.248L61.8977 411.894Z" fill="white" fill-opacity="0.03"/>
<path d="M61.8977 376.206L52.205 376.206L52.205 385.899L46.5592 385.899L46.5592 376.206L36.9163 376.206L36.9163 370.56L46.5592 370.56L46.5592 360.918L52.205 360.918L52.205 370.56L61.8977 370.56L61.8977 376.206Z" fill="white" fill-opacity="0.03"/>
<path d="M61.8978 340.518L52.205 340.518L52.205 350.211L46.5592 350.211L46.5592 340.518L36.9163 340.518L36.9163 334.873L46.5592 334.873L46.5592 325.23L52.205 325.23L52.205 334.873L61.8978 334.873L61.8978 340.518Z" fill="white" fill-opacity="0.03"/>
<path d="M61.8978 304.831L52.205 304.831L52.205 314.523L46.5592 314.523L46.5592 304.831L36.9163 304.831L36.9163 299.185L46.5592 299.185L46.5592 289.542L52.205 289.542L52.205 299.185L61.8978 299.185L61.8978 304.831Z" fill="white" fill-opacity="0.03"/>
<path d="M61.8978 269.143L52.205 269.143L52.205 278.836L46.5592 278.836L46.5592 269.143L36.9163 269.143L36.9163 263.497L46.5592 263.497L46.5592 253.854L52.205 253.854L52.205 263.497L61.8978 263.497L61.8978 269.143Z" fill="white" fill-opacity="0.03"/>
<path d="M61.8978 233.455L52.205 233.455L52.205 243.148L46.5592 243.148L46.5592 233.455L36.9163 233.455L36.9163 227.81L46.5592 227.81L46.5592 218.167L52.205 218.167L52.205 227.81L61.8978 227.81L61.8978 233.455Z" fill="white" fill-opacity="0.03"/>
<path d="M61.8978 197.768L52.205 197.768L52.205 207.46L46.5592 207.46L46.5592 197.768L36.9163 197.768L36.9163 192.122L46.5592 192.122L46.5592 182.479L52.205 182.479L52.205 192.122L61.8978 192.122L61.8978 197.768Z" fill="white" fill-opacity="0.03"/>
<path d="M61.8978 162.08L52.205 162.08L52.205 171.773L46.5592 171.773L46.5592 162.08L36.9163 162.08L36.9163 156.434L46.5592 156.434L46.5592 146.791L52.205 146.791L52.205 156.434L61.8978 156.434L61.8978 162.08Z" fill="white" fill-opacity="0.03"/>
<path d="M61.8978 126.392L52.205 126.392L52.205 136.085L46.5592 136.085L46.5592 126.392L36.9163 126.392L36.9163 120.746L46.5592 120.746L46.5592 111.103L52.205 111.103L52.205 120.746L61.8978 120.746L61.8978 126.392Z" fill="white" fill-opacity="0.03"/>
<path d="M61.8978 90.7044L52.205 90.7044L52.205 100.397L46.5592 100.397L46.5592 90.7044L36.9163 90.7044L36.9163 85.0585L46.5592 85.0585L46.5592 75.4158L52.205 75.4158L52.205 85.0585L61.8978 85.0585L61.8978 90.7044Z" fill="white" fill-opacity="0.03"/>
<path d="M61.8978 55.0167L52.205 55.0167L52.205 64.7094L46.5592 64.7094L46.5592 55.0167L36.9163 55.0167L36.9163 49.3709L46.5592 49.3709L46.5592 39.7281L52.205 39.7281L52.205 49.3709L61.8978 49.3709L61.8978 55.0167Z" fill="white" fill-opacity="0.03"/>
<path d="M61.8978 19.3289L52.205 19.3289L52.205 29.0217L46.5592 29.0217L46.5592 19.3289L36.9163 19.3289L36.9163 13.6832L46.5592 13.6832L46.5592 4.04034L52.205 4.04034L52.205 13.6832L61.8978 13.6832L61.8978 19.3289Z" fill="white" fill-opacity="0.03"/>
<path d="M61.8978 -16.3588L52.205 -16.3588L52.205 -6.66608L46.5592 -6.66608L46.5592 -16.3588L36.9163 -16.3588L36.9163 -22.0046L46.5592 -22.0046L46.5592 -31.6474L52.205 -31.6474L52.205 -22.0046L61.8978 -22.0046L61.8978 -16.3588Z" fill="white" fill-opacity="0.03"/>
<path d="M94.0752 911.122L85.7671 911.122L85.7671 919.43L80.9278 919.43L80.9278 911.122L72.6626 911.122L72.6626 906.283L80.9278 906.283L80.9278 898.017L85.7671 898.017L85.7671 906.283L94.0752 906.283L94.0752 911.122Z" fill="white" fill-opacity="0.03"/>
<path d="M94.0752 875.434L85.7671 875.434L85.7671 883.742L80.9278 883.742L80.9278 875.434L72.6626 875.434L72.6626 870.595L80.9278 870.595L80.9278 862.33L85.7671 862.33L85.7671 870.595L94.0752 870.595L94.0752 875.434Z" fill="white" fill-opacity="0.03"/>
<path d="M94.0752 839.747L85.7671 839.747L85.7671 848.055L80.9278 848.055L80.9278 839.747L72.6626 839.747L72.6626 834.907L80.9278 834.907L80.9278 826.642L85.7671 826.642L85.7671 834.907L94.0752 834.907L94.0752 839.747Z" fill="white" fill-opacity="0.03"/>
<path d="M94.0752 804.059L85.7671 804.059L85.7671 812.367L80.9279 812.367L80.9279 804.059L72.6626 804.059L72.6626 799.22L80.9279 799.22L80.9279 790.954L85.7671 790.954L85.7671 799.22L94.0752 799.22L94.0752 804.059Z" fill="white" fill-opacity="0.03"/>
<path d="M94.0752 768.371L85.7671 768.371L85.7671 776.679L80.9279 776.679L80.9279 768.371L72.6626 768.371L72.6626 763.532L80.9279 763.532L80.9279 755.267L85.7671 755.267L85.7671 763.532L94.0752 763.532L94.0752 768.371Z" fill="white" fill-opacity="0.03"/>
<path d="M94.0752 732.683L85.7671 732.683L85.7671 740.991L80.9279 740.991L80.9279 732.683L72.6626 732.683L72.6626 727.844L80.9279 727.844L80.9279 719.579L85.7671 719.579L85.7671 727.844L94.0752 727.844L94.0752 732.683Z" fill="white" fill-opacity="0.03"/>
<path d="M94.0752 696.996L85.7671 696.996L85.7671 705.304L80.9279 705.304L80.9279 696.996L72.6626 696.996L72.6626 692.156L80.9279 692.156L80.9279 683.891L85.7671 683.891L85.7671 692.156L94.0752 692.156L94.0752 696.996Z" fill="white" fill-opacity="0.03"/>
<path d="M94.0752 661.308L85.7671 661.308L85.7671 669.616L80.9279 669.616L80.9279 661.308L72.6626 661.308L72.6626 656.469L80.9279 656.469L80.9279 648.203L85.7671 648.203L85.7671 656.469L94.0752 656.469L94.0752 661.308Z" fill="white" fill-opacity="0.03"/>
<path d="M94.0752 625.62L85.7671 625.62L85.7671 633.928L80.9279 633.928L80.9279 625.62L72.6626 625.62L72.6626 620.781L80.9279 620.781L80.9279 612.516L85.7671 612.516L85.7671 620.781L94.0752 620.781L94.0752 625.62Z" fill="white" fill-opacity="0.03"/>
<path d="M94.0752 589.932L85.7671 589.932L85.7671 598.241L80.9279 598.241L80.9279 589.932L72.6626 589.932L72.6626 585.093L80.9279 585.093L80.9279 576.828L85.7671 576.828L85.7671 585.093L94.0752 585.093L94.0752 589.932Z" fill="white" fill-opacity="0.03"/>
<path d="M94.0752 554.245L85.7671 554.245L85.7671 562.553L80.9279 562.553L80.9279 554.245L72.6626 554.245L72.6626 549.405L80.9279 549.405L80.9279 541.14L85.7671 541.14L85.7671 549.405L94.0752 549.405L94.0752 554.245Z" fill="white" fill-opacity="0.03"/>
<path d="M94.0752 518.557L85.7671 518.557L85.7671 526.865L80.9279 526.865L80.9279 518.557L72.6626 518.557L72.6626 513.718L80.9279 513.718L80.9279 505.452L85.7671 505.452L85.7671 513.718L94.0752 513.718L94.0752 518.557Z" fill="white" fill-opacity="0.03"/>
<path d="M94.0752 482.869L85.7671 482.869L85.7671 491.177L80.9279 491.177L80.9279 482.869L72.6626 482.869L72.6626 478.03L80.9279 478.03L80.9279 469.765L85.7671 469.765L85.7671 478.03L94.0752 478.03L94.0752 482.869Z" fill="white" fill-opacity="0.03"/>
<path d="M94.0752 447.181L85.7671 447.181L85.7671 455.49L80.9279 455.49L80.9279 447.181L72.6626 447.181L72.6626 442.342L80.9279 442.342L80.9279 434.077L85.7671 434.077L85.7671 442.342L94.0752 442.342L94.0752 447.181Z" fill="white" fill-opacity="0.03"/>
<path d="M94.0752 411.494L85.7671 411.494L85.7671 419.802L80.9279 419.802L80.9279 411.494L72.6626 411.494L72.6626 406.654L80.9279 406.654L80.9279 398.389L85.7671 398.389L85.7671 406.654L94.0752 406.654L94.0752 411.494Z" fill="white" fill-opacity="0.03"/>
<path d="M94.0752 375.806L85.7671 375.806L85.7671 384.114L80.9279 384.114L80.9279 375.806L72.6626 375.806L72.6626 370.967L80.9279 370.967L80.9279 362.701L85.7671 362.701L85.7671 370.967L94.0752 370.967L94.0752 375.806Z" fill="white" fill-opacity="0.03"/>
<path d="M94.0752 340.118L85.7671 340.118L85.7671 348.426L80.9279 348.426L80.9279 340.118L72.6626 340.118L72.6626 335.279L80.9279 335.279L80.9279 327.014L85.7671 327.014L85.7671 335.279L94.0752 335.279L94.0752 340.118Z" fill="white" fill-opacity="0.03"/>
<path d="M94.0752 304.43L85.7671 304.43L85.7671 312.739L80.9279 312.739L80.9279 304.43L72.6626 304.43L72.6626 299.591L80.9279 299.591L80.9279 291.326L85.7671 291.326L85.7671 299.591L94.0752 299.591L94.0752 304.43Z" fill="white" fill-opacity="0.03"/>
<path d="M94.0752 268.743L85.7671 268.743L85.7671 277.051L80.9279 277.051L80.9279 268.743L72.6626 268.743L72.6626 263.904L80.9279 263.904L80.9279 255.638L85.7671 255.638L85.7671 263.904L94.0752 263.904L94.0752 268.743Z" fill="white" fill-opacity="0.03"/>
<path d="M94.0752 233.055L85.7671 233.055L85.7671 241.363L80.9279 241.363L80.9279 233.055L72.6626 233.055L72.6626 228.216L80.9279 228.216L80.9279 219.951L85.7671 219.951L85.7671 228.216L94.0752 228.216L94.0752 233.055Z" fill="white" fill-opacity="0.03"/>
<path d="M94.0752 197.367L85.7671 197.367L85.7671 205.675L80.9279 205.675L80.9279 197.367L72.6626 197.367L72.6626 192.528L80.9279 192.528L80.9279 184.263L85.7671 184.263L85.7671 192.528L94.0752 192.528L94.0752 197.367Z" fill="white" fill-opacity="0.03"/>
<path d="M94.0752 161.68L85.7671 161.68L85.7671 169.988L80.9279 169.988L80.9279 161.68L72.6626 161.68L72.6626 156.84L80.9279 156.84L80.9279 148.575L85.7671 148.575L85.7671 156.84L94.0752 156.84L94.0752 161.68Z" fill="white" fill-opacity="0.03"/>
<path d="M94.0752 125.992L85.7671 125.992L85.7671 134.3L80.9279 134.3L80.9279 125.992L72.6626 125.992L72.6626 121.153L80.9279 121.153L80.9279 112.887L85.7671 112.887L85.7671 121.153L94.0752 121.153L94.0752 125.992Z" fill="white" fill-opacity="0.03"/>
<path d="M94.0752 90.3041L85.7671 90.3041L85.7671 98.6124L80.9279 98.6124L80.9279 90.3041L72.6626 90.3041L72.6626 85.4649L80.9279 85.4649L80.9279 77.1996L85.7671 77.1996L85.7671 85.4649L94.0752 85.4649L94.0752 90.3041Z" fill="white" fill-opacity="0.03"/>
<path d="M94.0752 54.6164L85.7671 54.6164L85.7671 62.9246L80.9279 62.9246L80.9279 54.6164L72.6626 54.6164L72.6626 49.7772L80.9279 49.7772L80.9279 41.5119L85.7671 41.5119L85.7671 49.7772L94.0752 49.7772L94.0752 54.6164Z" fill="white" fill-opacity="0.03"/>
<path d="M94.0752 18.9287L85.7671 18.9287L85.7671 27.2369L80.9279 27.2369L80.9279 18.9287L72.6626 18.9287L72.6626 14.0895L80.9279 14.0895L80.9279 5.82416L85.7671 5.82416L85.7671 14.0895L94.0752 14.0895L94.0752 18.9287Z" fill="white" fill-opacity="0.03"/>
<path d="M94.0752 -16.7591L85.7671 -16.7591L85.7671 -8.45087L80.9279 -8.45087L80.9279 -16.7591L72.6626 -16.7591L72.6626 -21.5982L80.9279 -21.5982L80.9279 -29.8636L85.7671 -29.8636L85.7671 -21.5982L94.0752 -21.5982L94.0752 -16.7591Z" fill="white" fill-opacity="0.03"/>
<path d="M127.423 910.722L120.499 910.722L120.499 917.645L116.467 917.645L116.467 910.722L109.579 910.722L109.579 906.689L116.467 906.689L116.467 899.801L120.499 899.801L120.499 906.689L127.423 906.689L127.423 910.722Z" fill="white" fill-opacity="0.03"/>
<path d="M127.423 875.034L120.499 875.034L120.499 881.957L116.467 881.957L116.467 875.034L109.579 875.034L109.579 871.001L116.467 871.001L116.467 864.114L120.499 864.114L120.499 871.001L127.423 871.001L127.423 875.034Z" fill="white" fill-opacity="0.03"/>
<path d="M127.423 839.346L120.499 839.346L120.499 846.27L116.467 846.27L116.467 839.346L109.579 839.346L109.579 835.314L116.467 835.314L116.467 828.426L120.499 828.426L120.499 835.314L127.423 835.314L127.423 839.346Z" fill="white" fill-opacity="0.03"/>
<path d="M127.423 803.659L120.499 803.659L120.499 810.582L116.467 810.582L116.467 803.659L109.579 803.659L109.579 799.626L116.467 799.626L116.467 792.738L120.499 792.738L120.499 799.626L127.423 799.626L127.423 803.659Z" fill="white" fill-opacity="0.03"/>
<path d="M127.423 767.971L120.499 767.971L120.499 774.894L116.467 774.894L116.467 767.971L109.579 767.971L109.579 763.938L116.467 763.938L116.467 757.05L120.499 757.05L120.499 763.938L127.423 763.938L127.423 767.971Z" fill="white" fill-opacity="0.03"/>
<path d="M127.423 732.283L120.499 732.283L120.499 739.206L116.467 739.206L116.467 732.283L109.579 732.283L109.579 728.25L116.467 728.25L116.467 721.363L120.499 721.363L120.499 728.25L127.423 728.25L127.423 732.283Z" fill="white" fill-opacity="0.03"/>
<path d="M127.423 696.595L120.499 696.595L120.499 703.519L116.467 703.519L116.467 696.595L109.579 696.595L109.579 692.563L116.467 692.563L116.467 685.675L120.499 685.675L120.499 692.563L127.423 692.563L127.423 696.595Z" fill="white" fill-opacity="0.03"/>
<path d="M127.423 660.908L120.499 660.908L120.499 667.831L116.467 667.831L116.467 660.908L109.579 660.908L109.579 656.875L116.467 656.875L116.467 649.987L120.499 649.987L120.499 656.875L127.423 656.875L127.423 660.908Z" fill="white" fill-opacity="0.03"/>
<path d="M127.423 625.22L120.499 625.22L120.499 632.143L116.467 632.143L116.467 625.22L109.579 625.22L109.579 621.187L116.467 621.187L116.467 614.3L120.499 614.3L120.499 621.187L127.423 621.187L127.423 625.22Z" fill="white" fill-opacity="0.03"/>
<path d="M127.423 589.532L120.499 589.532L120.499 596.456L116.467 596.456L116.467 589.532L109.579 589.532L109.579 585.499L116.467 585.499L116.467 578.612L120.499 578.612L120.499 585.499L127.423 585.499L127.423 589.532Z" fill="white" fill-opacity="0.03"/>
<path d="M127.423 553.844L120.499 553.844L120.499 560.768L116.467 560.768L116.467 553.844L109.579 553.844L109.579 549.812L116.467 549.812L116.467 542.924L120.499 542.924L120.499 549.812L127.423 549.812L127.423 553.844Z" fill="white" fill-opacity="0.03"/>
<path d="M127.423 518.157L120.499 518.157L120.499 525.08L116.467 525.08L116.467 518.157L109.579 518.157L109.579 514.124L116.467 514.124L116.467 507.236L120.499 507.236L120.499 514.124L127.423 514.124L127.423 518.157Z" fill="white" fill-opacity="0.03"/>
<path d="M127.423 482.469L120.499 482.469L120.499 489.392L116.467 489.392L116.467 482.469L109.579 482.469L109.579 478.436L116.467 478.436L116.467 471.549L120.499 471.549L120.499 478.436L127.423 478.436L127.423 482.469Z" fill="white" fill-opacity="0.03"/>
<path d="M127.423 446.781L120.499 446.781L120.499 453.705L116.467 453.705L116.467 446.781L109.579 446.781L109.579 442.748L116.467 442.748L116.467 435.861L120.499 435.861L120.499 442.748L127.423 442.748L127.423 446.781Z" fill="white" fill-opacity="0.03"/>
<path d="M127.423 411.094L120.499 411.094L120.499 418.017L116.467 418.017L116.467 411.094L109.579 411.094L109.579 407.061L116.467 407.061L116.467 400.173L120.499 400.173L120.499 407.061L127.423 407.061L127.423 411.094Z" fill="white" fill-opacity="0.03"/>
<path d="M127.423 375.406L120.499 375.406L120.499 382.329L116.467 382.329L116.467 375.406L109.579 375.406L109.579 371.373L116.467 371.373L116.467 364.485L120.499 364.485L120.499 371.373L127.423 371.373L127.423 375.406Z" fill="white" fill-opacity="0.03"/>
<path d="M127.423 339.718L120.499 339.718L120.499 346.641L116.467 346.641L116.467 339.718L109.579 339.718L109.579 335.685L116.467 335.685L116.467 328.798L120.499 328.798L120.499 335.685L127.423 335.685L127.423 339.718Z" fill="white" fill-opacity="0.03"/>
<path d="M127.423 304.03L120.499 304.03L120.499 310.954L116.467 310.954L116.467 304.03L109.579 304.03L109.579 299.998L116.467 299.998L116.467 293.11L120.499 293.11L120.499 299.998L127.423 299.998L127.423 304.03Z" fill="white" fill-opacity="0.03"/>
<path d="M127.423 268.343L120.499 268.343L120.499 275.266L116.467 275.266L116.467 268.343L109.579 268.343L109.579 264.31L116.467 264.31L116.467 257.422L120.499 257.422L120.499 264.31L127.423 264.31L127.423 268.343Z" fill="white" fill-opacity="0.03"/>
<path d="M127.423 232.655L120.499 232.655L120.499 239.578L116.467 239.578L116.467 232.655L109.579 232.655L109.579 228.622L116.467 228.622L116.467 221.734L120.499 221.734L120.499 228.622L127.423 228.622L127.423 232.655Z" fill="white" fill-opacity="0.03"/>
<path d="M127.423 196.967L120.499 196.967L120.499 203.891L116.467 203.891L116.467 196.967L109.579 196.967L109.579 192.934L116.467 192.934L116.467 186.047L120.499 186.047L120.499 192.934L127.423 192.934L127.423 196.967Z" fill="white" fill-opacity="0.03"/>
<path d="M127.423 161.279L120.499 161.279L120.499 168.203L116.467 168.203L116.467 161.279L109.579 161.279L109.579 157.247L116.467 157.247L116.467 150.359L120.499 150.359L120.499 157.247L127.423 157.247L127.423 161.279Z" fill="white" fill-opacity="0.03"/>
<path d="M127.423 125.592L120.499 125.592L120.499 132.515L116.467 132.515L116.467 125.592L109.579 125.592L109.579 121.559L116.467 121.559L116.467 114.671L120.499 114.671L120.499 121.559L127.423 121.559L127.423 125.592Z" fill="white" fill-opacity="0.03"/>
<path d="M127.423 89.9039L120.499 89.9039L120.499 96.8273L116.467 96.8273L116.467 89.9039L109.579 89.9039L109.579 85.8712L116.467 85.8712L116.467 78.9835L120.499 78.9835L120.499 85.8712L127.423 85.8712L127.423 89.9039Z" fill="white" fill-opacity="0.03"/>
<path d="M127.423 54.2161L120.499 54.2161L120.499 61.1396L116.467 61.1396L116.467 54.2161L109.579 54.2161L109.579 50.1834L116.467 50.1834L116.467 43.2957L120.499 43.2957L120.499 50.1834L127.423 50.1834L127.423 54.2161Z" fill="white" fill-opacity="0.03"/>
<path d="M127.423 18.5285L120.499 18.5285L120.499 25.4518L116.467 25.4518L116.467 18.5285L109.579 18.5285L109.579 14.4957L116.467 14.4957L116.467 7.60797L120.499 7.60797L120.499 14.4957L127.423 14.4957L127.423 18.5285Z" fill="white" fill-opacity="0.03"/>
<path d="M127.423 -17.1592L120.499 -17.1592L120.499 -10.2359L116.467 -10.2359L116.467 -17.1592L109.579 -17.1592L109.579 -21.1921L116.467 -21.1921L116.467 -28.0798L120.499 -28.0798L120.499 -21.1921L127.423 -21.1921L127.423 -17.1592Z" fill="white" fill-opacity="0.03"/>
<path d="M159.6 910.321L154.061 910.321L154.061 915.86L150.835 915.86L150.835 910.321L145.325 910.321L145.325 907.095L150.835 907.095L150.835 901.585L154.061 901.585L154.061 907.095L159.6 907.095L159.6 910.321Z" fill="white" fill-opacity="0.03"/>
<path d="M159.6 874.634L154.061 874.634L154.061 880.172L150.835 880.172L150.835 874.634L145.325 874.634L145.325 871.408L150.835 871.408L150.835 865.897L154.061 865.897L154.061 871.408L159.6 871.408L159.6 874.634Z" fill="white" fill-opacity="0.03"/>
<path d="M159.6 838.946L154.061 838.946L154.061 844.485L150.835 844.485L150.835 838.946L145.325 838.946L145.325 835.72L150.835 835.72L150.835 830.21L154.061 830.21L154.061 835.72L159.6 835.72L159.6 838.946Z" fill="white" fill-opacity="0.03"/>
<path d="M159.6 803.258L154.061 803.258L154.061 808.797L150.835 808.797L150.835 803.258L145.325 803.258L145.325 800.032L150.835 800.032L150.835 794.522L154.061 794.522L154.061 800.032L159.6 800.032L159.6 803.258Z" fill="white" fill-opacity="0.03"/>
<path d="M159.6 767.57L154.061 767.57L154.061 773.109L150.835 773.109L150.835 767.57L145.325 767.57L145.325 764.344L150.835 764.344L150.835 758.834L154.061 758.834L154.061 764.344L159.6 764.344L159.6 767.57Z" fill="white" fill-opacity="0.03"/>
<path d="M159.6 731.883L154.061 731.883L154.061 737.422L150.835 737.422L150.835 731.883L145.325 731.883L145.325 728.657L150.835 728.657L150.835 723.147L154.061 723.147L154.061 728.657L159.6 728.657L159.6 731.883Z" fill="white" fill-opacity="0.03"/>
<path d="M159.6 696.195L154.061 696.195L154.061 701.734L150.835 701.734L150.835 696.195L145.325 696.195L145.325 692.969L150.835 692.969L150.835 687.459L154.061 687.459L154.061 692.969L159.6 692.969L159.6 696.195Z" fill="white" fill-opacity="0.03"/>
<path d="M159.6 660.507L154.061 660.507L154.061 666.046L150.835 666.046L150.835 660.507L145.325 660.507L145.325 657.281L150.835 657.281L150.835 651.771L154.061 651.771L154.061 657.281L159.6 657.281L159.6 660.507Z" fill="white" fill-opacity="0.03"/>
<path d="M159.6 624.82L154.061 624.82L154.061 630.358L150.835 630.358L150.835 624.82L145.325 624.82L145.325 621.594L150.835 621.594L150.835 616.083L154.061 616.083L154.061 621.594L159.6 621.594L159.6 624.82Z" fill="white" fill-opacity="0.03"/>
<path d="M159.6 589.132L154.061 589.132L154.061 594.671L150.835 594.671L150.835 589.132L145.325 589.132L145.325 585.906L150.835 585.906L150.835 580.396L154.061 580.396L154.061 585.906L159.6 585.906L159.6 589.132Z" fill="white" fill-opacity="0.03"/>
<path d="M159.6 553.444L154.061 553.444L154.061 558.983L150.835 558.983L150.835 553.444L145.325 553.444L145.325 550.218L150.835 550.218L150.835 544.708L154.061 544.708L154.061 550.218L159.6 550.218L159.6 553.444Z" fill="white" fill-opacity="0.03"/>
<path d="M159.6 517.757L154.061 517.757L154.061 523.295L150.835 523.295L150.835 517.757L145.325 517.757L145.325 514.53L150.835 514.53L150.835 509.02L154.061 509.02L154.061 514.53L159.6 514.53L159.6 517.757Z" fill="white" fill-opacity="0.03"/>
<path d="M159.6 482.069L154.061 482.069L154.061 487.607L150.835 487.607L150.835 482.069L145.325 482.069L145.325 478.843L150.835 478.843L150.835 473.332L154.061 473.332L154.061 478.843L159.6 478.843L159.6 482.069Z" fill="white" fill-opacity="0.03"/>
<path d="M159.6 446.381L154.061 446.381L154.061 451.92L150.835 451.92L150.835 446.381L145.325 446.381L145.325 443.155L150.835 443.155L150.835 437.645L154.061 437.645L154.061 443.155L159.6 443.155L159.6 446.381Z" fill="white" fill-opacity="0.03"/>
<path d="M159.6 410.693L154.061 410.693L154.061 416.232L150.835 416.232L150.835 410.693L145.325 410.693L145.325 407.467L150.835 407.467L150.835 401.957L154.061 401.957L154.061 407.467L159.6 407.467L159.6 410.693Z" fill="white" fill-opacity="0.03"/>
<path d="M159.6 375.006L154.061 375.006L154.061 380.544L150.835 380.544L150.835 375.006L145.325 375.006L145.325 371.779L150.835 371.779L150.835 366.269L154.061 366.269L154.061 371.779L159.6 371.779L159.6 375.006Z" fill="white" fill-opacity="0.03"/>
<path d="M159.6 339.318L154.061 339.318L154.061 344.857L150.835 344.857L150.835 339.318L145.325 339.318L145.325 336.092L150.835 336.092L150.835 330.581L154.061 330.581L154.061 336.092L159.6 336.092L159.6 339.318Z" fill="white" fill-opacity="0.03"/>
<path d="M159.6 303.63L154.061 303.63L154.061 309.169L150.835 309.169L150.835 303.63L145.325 303.63L145.325 300.404L150.835 300.404L150.835 294.894L154.061 294.894L154.061 300.404L159.6 300.404L159.6 303.63Z" fill="white" fill-opacity="0.03"/>
<path d="M159.6 267.942L154.061 267.942L154.061 273.481L150.835 273.481L150.835 267.942L145.325 267.942L145.325 264.716L150.835 264.716L150.835 259.206L154.061 259.206L154.061 264.716L159.6 264.716L159.6 267.942Z" fill="white" fill-opacity="0.03"/>
<path d="M159.6 232.255L154.061 232.255L154.061 237.793L150.835 237.793L150.835 232.255L145.325 232.255L145.325 229.029L150.835 229.029L150.835 223.518L154.061 223.518L154.061 229.029L159.6 229.029L159.6 232.255Z" fill="white" fill-opacity="0.03"/>
<path d="M159.6 196.567L154.061 196.567L154.061 202.106L150.835 202.106L150.835 196.567L145.325 196.567L145.325 193.341L150.835 193.341L150.835 187.831L154.061 187.831L154.061 193.341L159.6 193.341L159.6 196.567Z" fill="white" fill-opacity="0.03"/>
<path d="M159.6 160.879L154.061 160.879L154.061 166.418L150.835 166.418L150.835 160.879L145.325 160.879L145.325 157.653L150.835 157.653L150.835 152.143L154.061 152.143L154.061 157.653L159.6 157.653L159.6 160.879Z" fill="white" fill-opacity="0.03"/>
<path d="M159.6 125.191L154.061 125.191L154.061 130.73L150.835 130.73L150.835 125.191L145.325 125.191L145.325 121.965L150.835 121.965L150.835 116.455L154.061 116.455L154.061 121.965L159.6 121.965L159.6 125.191Z" fill="white" fill-opacity="0.03"/>
<path d="M159.6 89.5037L154.061 89.5037L154.061 95.0423L150.835 95.0423L150.835 89.5037L145.325 89.5037L145.325 86.2775L150.835 86.2775L150.835 80.7673L154.061 80.7673L154.061 86.2775L159.6 86.2775L159.6 89.5037Z" fill="white" fill-opacity="0.03"/>
<path d="M159.6 53.816L154.061 53.816L154.061 59.3546L150.835 59.3546L150.835 53.816L145.325 53.816L145.325 50.5898L150.835 50.5898L150.835 45.0795L154.061 45.0795L154.061 50.5898L159.6 50.5898L159.6 53.816Z" fill="white" fill-opacity="0.03"/>
<path d="M159.6 18.1282L154.061 18.1282L154.061 23.6669L150.835 23.6669L150.835 18.1282L145.325 18.1282L145.325 14.902L150.835 14.902L150.835 9.39179L154.061 9.39179L154.061 14.902L159.6 14.902L159.6 18.1282Z" fill="white" fill-opacity="0.03"/>
<path d="M159.6 -17.5595L154.061 -17.5595L154.061 -12.0208L150.835 -12.0208L150.835 -17.5595L145.325 -17.5595L145.325 -20.7857L150.835 -20.7857L150.835 -26.2958L154.061 -26.2958L154.061 -20.7857L159.6 -20.7857L159.6 -17.5595Z" fill="white" fill-opacity="0.03"/>
<path d="M192.948 909.921L188.794 909.921L188.794 914.075L186.374 914.075L186.374 909.921L182.241 909.921L182.241 907.502L186.374 907.502L186.374 903.369L188.794 903.369L188.794 907.502L192.948 907.502L192.948 909.921Z" fill="white" fill-opacity="0.03"/>
<path d="M192.948 874.233L188.794 874.233L188.794 878.388L186.374 878.388L186.374 874.233L182.241 874.233L182.241 871.814L186.374 871.814L186.374 867.681L188.794 867.681L188.794 871.814L192.948 871.814L192.948 874.233Z" fill="white" fill-opacity="0.03"/>
<path d="M192.948 838.546L188.794 838.546L188.794 842.7L186.374 842.7L186.374 838.546L182.241 838.546L182.241 836.126L186.374 836.126L186.374 831.993L188.794 831.993L188.794 836.126L192.948 836.126L192.948 838.546Z" fill="white" fill-opacity="0.03"/>
<path d="M192.948 802.858L188.794 802.858L188.794 807.012L186.374 807.012L186.374 802.858L182.241 802.858L182.241 800.438L186.374 800.438L186.374 796.306L188.794 796.306L188.794 800.438L192.948 800.438L192.948 802.858Z" fill="white" fill-opacity="0.03"/>
<path d="M192.948 767.17L188.794 767.17L188.794 771.324L186.374 771.324L186.374 767.17L182.241 767.17L182.241 764.751L186.374 764.751L186.374 760.618L188.794 760.618L188.794 764.751L192.948 764.751L192.948 767.17Z" fill="white" fill-opacity="0.03"/>
<path d="M192.948 731.482L188.794 731.482L188.794 735.637L186.374 735.637L186.374 731.482L182.241 731.482L182.241 729.063L186.374 729.063L186.374 724.93L188.794 724.93L188.794 729.063L192.948 729.063L192.948 731.482Z" fill="white" fill-opacity="0.03"/>
<path d="M192.948 695.795L188.794 695.795L188.794 699.949L186.374 699.949L186.374 695.795L182.241 695.795L182.241 693.375L186.374 693.375L186.374 689.242L188.794 689.242L188.794 693.375L192.948 693.375L192.948 695.795Z" fill="white" fill-opacity="0.03"/>
<path d="M192.948 660.107L188.794 660.107L188.794 664.261L186.374 664.261L186.374 660.107L182.241 660.107L182.241 657.687L186.374 657.687L186.374 653.555L188.794 653.555L188.794 657.687L192.948 657.687L192.948 660.107Z" fill="white" fill-opacity="0.03"/>
<path d="M192.948 624.419L188.794 624.419L188.794 628.573L186.374 628.573L186.374 624.419L182.241 624.419L182.241 622L186.374 622L186.374 617.867L188.794 617.867L188.794 622L192.948 622L192.948 624.419Z" fill="white" fill-opacity="0.03"/>
<path d="M192.948 588.732L188.794 588.732L188.794 592.886L186.374 592.886L186.374 588.732L182.241 588.732L182.241 586.312L186.374 586.312L186.374 582.179L188.794 582.179L188.794 586.312L192.948 586.312L192.948 588.732Z" fill="white" fill-opacity="0.03"/>
<path d="M192.948 553.044L188.794 553.044L188.794 557.198L186.374 557.198L186.374 553.044L182.241 553.044L182.241 550.624L186.374 550.624L186.374 546.492L188.794 546.492L188.794 550.624L192.948 550.624L192.948 553.044Z" fill="white" fill-opacity="0.03"/>
<path d="M192.948 517.356L188.794 517.356L188.794 521.51L186.374 521.51L186.374 517.356L182.241 517.356L182.241 514.937L186.374 514.937L186.374 510.804L188.794 510.804L188.794 514.937L192.948 514.937L192.948 517.356Z" fill="white" fill-opacity="0.03"/>
<path d="M192.948 481.668L188.794 481.668L188.794 485.822L186.374 485.822L186.374 481.668L182.241 481.668L182.241 479.249L186.374 479.249L186.374 475.116L188.794 475.116L188.794 479.249L192.948 479.249L192.948 481.668Z" fill="white" fill-opacity="0.03"/>
<path d="M192.948 445.981L188.794 445.981L188.794 450.135L186.374 450.135L186.374 445.981L182.241 445.981L182.241 443.561L186.374 443.561L186.374 439.429L188.794 439.429L188.794 443.561L192.948 443.561L192.948 445.981Z" fill="white" fill-opacity="0.03"/>
<path d="M192.948 410.293L188.794 410.293L188.794 414.447L186.374 414.447L186.374 410.293L182.241 410.293L182.241 407.873L186.374 407.873L186.374 403.741L188.794 403.741L188.794 407.873L192.948 407.873L192.948 410.293Z" fill="white" fill-opacity="0.03"/>
<path d="M192.948 374.605L188.794 374.605L188.794 378.759L186.374 378.759L186.374 374.605L182.241 374.605L182.241 372.186L186.374 372.186L186.374 368.053L188.794 368.053L188.794 372.186L192.948 372.186L192.948 374.605Z" fill="white" fill-opacity="0.03"/>
<path d="M192.948 338.917L188.794 338.917L188.794 343.071L186.374 343.071L186.374 338.917L182.241 338.917L182.241 336.498L186.374 336.498L186.374 332.365L188.794 332.365L188.794 336.498L192.948 336.498L192.948 338.917Z" fill="white" fill-opacity="0.03"/>
<path d="M192.948 303.23L188.794 303.23L188.794 307.384L186.374 307.384L186.374 303.23L182.241 303.23L182.241 300.81L186.374 300.81L186.374 296.678L188.794 296.678L188.794 300.81L192.948 300.81L192.948 303.23Z" fill="white" fill-opacity="0.03"/>
<path d="M192.948 267.542L188.794 267.542L188.794 271.696L186.374 271.696L186.374 267.542L182.241 267.542L182.241 265.122L186.374 265.122L186.374 260.99L188.794 260.99L188.794 265.122L192.948 265.122L192.948 267.542Z" fill="white" fill-opacity="0.03"/>
<path d="M192.948 231.854L188.794 231.854L188.794 236.008L186.374 236.008L186.374 231.854L182.241 231.854L182.241 229.435L186.374 229.435L186.374 225.302L188.794 225.302L188.794 229.435L192.948 229.435L192.948 231.854Z" fill="white" fill-opacity="0.03"/>
<path d="M192.948 196.167L188.794 196.167L188.794 200.32L186.374 200.32L186.374 196.167L182.241 196.167L182.241 193.747L186.374 193.747L186.374 189.614L188.794 189.614L188.794 193.747L192.948 193.747L192.948 196.167Z" fill="white" fill-opacity="0.03"/>
<path d="M192.948 160.479L188.794 160.479L188.794 164.633L186.374 164.633L186.374 160.479L182.241 160.479L182.241 158.059L186.374 158.059L186.374 153.927L188.794 153.927L188.794 158.059L192.948 158.059L192.948 160.479Z" fill="white" fill-opacity="0.03"/>
<path d="M192.948 124.791L188.794 124.791L188.794 128.945L186.374 128.945L186.374 124.791L182.241 124.791L182.241 122.372L186.374 122.372L186.374 118.239L188.794 118.239L188.794 122.372L192.948 122.372L192.948 124.791Z" fill="white" fill-opacity="0.03"/>
<path d="M192.948 89.1033L188.794 89.1033L188.794 93.2574L186.374 93.2574L186.374 89.1033L182.241 89.1033L182.241 86.6838L186.374 86.6838L186.374 82.5511L188.794 82.5511L188.794 86.6838L192.948 86.6838L192.948 89.1033Z" fill="white" fill-opacity="0.03"/>
<path d="M192.948 53.4156L188.794 53.4156L188.794 57.5696L186.374 57.5696L186.374 53.4156L182.241 53.4156L182.241 50.996L186.374 50.996L186.374 46.8635L188.794 46.8635L188.794 50.996L192.948 50.996L192.948 53.4156Z" fill="white" fill-opacity="0.03"/>
<path d="M192.948 17.7278L188.794 17.7278L188.794 21.8819L186.374 21.8819L186.374 17.7278L182.241 17.7278L182.241 15.3083L186.374 15.3083L186.374 11.1757L188.794 11.1757L188.794 15.3083L192.948 15.3083L192.948 17.7278Z" fill="white" fill-opacity="0.03"/>
<path d="M192.948 -17.9599L188.794 -17.9599L188.794 -13.8058L186.374 -13.8058L186.374 -17.9599L182.241 -17.9599L182.241 -20.3795L186.374 -20.3795L186.374 -24.512L188.794 -24.512L188.794 -20.3795L192.948 -20.3795L192.948 -17.9599Z" fill="white" fill-opacity="0.03"/>
<path d="M225.125 909.521L222.356 909.521L222.356 912.29L220.743 912.29L220.743 909.521L217.988 909.521L217.988 907.908L220.743 907.908L220.743 905.153L222.356 905.153L222.356 907.908L225.125 907.908L225.125 909.521Z" fill="white" fill-opacity="0.03"/>
<path d="M225.125 873.833L222.356 873.833L222.356 876.603L220.743 876.603L220.743 873.833L217.988 873.833L217.988 872.22L220.743 872.22L220.743 869.465L222.356 869.465L222.356 872.22L225.125 872.22L225.125 873.833Z" fill="white" fill-opacity="0.03"/>
<path d="M225.125 838.145L222.356 838.145L222.356 840.915L220.743 840.915L220.743 838.145L217.988 838.145L217.988 836.532L220.743 836.532L220.743 833.777L222.356 833.777L222.356 836.532L225.125 836.532L225.125 838.145Z" fill="white" fill-opacity="0.03"/>
<path d="M225.125 802.458L222.356 802.458L222.356 805.227L220.743 805.227L220.743 802.458L217.988 802.458L217.988 800.845L220.743 800.845L220.743 798.09L222.356 798.09L222.356 800.845L225.125 800.845L225.125 802.458Z" fill="white" fill-opacity="0.03"/>
<path d="M225.125 766.77L222.356 766.77L222.356 769.539L220.743 769.539L220.743 766.77L217.988 766.77L217.988 765.157L220.743 765.157L220.743 762.402L222.356 762.402L222.356 765.157L225.125 765.157L225.125 766.77Z" fill="white" fill-opacity="0.03"/>
<path d="M225.125 731.082L222.356 731.082L222.356 733.852L220.743 733.852L220.743 731.082L217.988 731.082L217.988 729.469L220.743 729.469L220.743 726.714L222.356 726.714L222.356 729.469L225.125 729.469L225.125 731.082Z" fill="white" fill-opacity="0.03"/>
<path d="M225.125 695.395L222.356 695.395L222.356 698.164L220.743 698.164L220.743 695.395L217.988 695.395L217.988 693.781L220.743 693.781L220.743 691.026L222.356 691.026L222.356 693.781L225.125 693.781L225.125 695.395Z" fill="white" fill-opacity="0.03"/>
<path d="M225.125 659.707L222.356 659.707L222.356 662.476L220.743 662.476L220.743 659.707L217.988 659.707L217.988 658.094L220.743 658.094L220.743 655.339L222.356 655.339L222.356 658.094L225.125 658.094L225.125 659.707Z" fill="white" fill-opacity="0.03"/>
<path d="M225.125 624.019L222.356 624.019L222.356 626.789L220.743 626.789L220.743 624.019L217.988 624.019L217.988 622.406L220.743 622.406L220.743 619.651L222.356 619.651L222.356 622.406L225.125 622.406L225.125 624.019Z" fill="white" fill-opacity="0.03"/>
<path d="M225.125 588.331L222.356 588.331L222.356 591.101L220.743 591.101L220.743 588.331L217.988 588.331L217.988 586.718L220.743 586.718L220.743 583.963L222.356 583.963L222.356 586.718L225.125 586.718L225.125 588.331Z" fill="white" fill-opacity="0.03"/>
<path d="M225.125 552.644L222.356 552.644L222.356 555.413L220.743 555.413L220.743 552.644L217.988 552.644L217.988 551.03L220.743 551.03L220.743 548.276L222.356 548.276L222.356 551.03L225.125 551.03L225.125 552.644Z" fill="white" fill-opacity="0.03"/>
<path d="M225.125 516.956L222.356 516.956L222.356 519.725L220.743 519.725L220.743 516.956L217.988 516.956L217.988 515.343L220.743 515.343L220.743 512.588L222.356 512.588L222.356 515.343L225.125 515.343L225.125 516.956Z" fill="white" fill-opacity="0.03"/>
<path d="M225.125 481.268L222.356 481.268L222.356 484.038L220.743 484.038L220.743 481.268L217.988 481.268L217.988 479.655L220.743 479.655L220.743 476.9L222.356 476.9L222.356 479.655L225.125 479.655L225.125 481.268Z" fill="white" fill-opacity="0.03"/>
<path d="M225.125 445.581L222.356 445.581L222.356 448.35L220.743 448.35L220.743 445.581L217.988 445.581L217.988 443.967L220.743 443.967L220.743 441.212L222.356 441.212L222.356 443.967L225.125 443.967L225.125 445.581Z" fill="white" fill-opacity="0.03"/>
<path d="M225.125 409.893L222.356 409.893L222.356 412.662L220.743 412.662L220.743 409.893L217.988 409.893L217.988 408.28L220.743 408.28L220.743 405.525L222.356 405.525L222.356 408.28L225.125 408.28L225.125 409.893Z" fill="white" fill-opacity="0.03"/>
<path d="M225.125 374.205L222.356 374.205L222.356 376.974L220.743 376.974L220.743 374.205L217.988 374.205L217.988 372.592L220.743 372.592L220.743 369.837L222.356 369.837L222.356 372.592L225.125 372.592L225.125 374.205Z" fill="white" fill-opacity="0.03"/>
<path d="M225.125 338.517L222.356 338.517L222.356 341.287L220.743 341.287L220.743 338.517L217.988 338.517L217.988 336.904L220.743 336.904L220.743 334.149L222.356 334.149L222.356 336.904L225.125 336.904L225.125 338.517Z" fill="white" fill-opacity="0.03"/>
<path d="M225.125 302.83L222.356 302.83L222.356 305.599L220.743 305.599L220.743 302.83L217.988 302.83L217.988 301.216L220.743 301.216L220.743 298.461L222.356 298.461L222.356 301.216L225.125 301.216L225.125 302.83Z" fill="white" fill-opacity="0.03"/>
<path d="M225.125 267.142L222.356 267.142L222.356 269.911L220.743 269.911L220.743 267.142L217.988 267.142L217.988 265.529L220.743 265.529L220.743 262.774L222.356 262.774L222.356 265.529L225.125 265.529L225.125 267.142Z" fill="white" fill-opacity="0.03"/>
<path d="M225.125 231.454L222.356 231.454L222.356 234.223L220.743 234.223L220.743 231.454L217.988 231.454L217.988 229.841L220.743 229.841L220.743 227.086L222.356 227.086L222.356 229.841L225.125 229.841L225.125 231.454Z" fill="white" fill-opacity="0.03"/>
<path d="M225.125 195.766L222.356 195.766L222.356 198.536L220.743 198.536L220.743 195.766L217.988 195.766L217.988 194.153L220.743 194.153L220.743 191.398L222.356 191.398L222.356 194.153L225.125 194.153L225.125 195.766Z" fill="white" fill-opacity="0.03"/>
<path d="M225.125 160.079L222.356 160.079L222.356 162.848L220.743 162.848L220.743 160.079L217.988 160.079L217.988 158.465L220.743 158.465L220.743 155.711L222.356 155.711L222.356 158.465L225.125 158.465L225.125 160.079Z" fill="white" fill-opacity="0.03"/>
<path d="M225.125 124.391L222.356 124.391L222.356 127.16L220.743 127.16L220.743 124.391L217.988 124.391L217.988 122.778L220.743 122.778L220.743 120.023L222.356 120.023L222.356 122.778L225.125 122.778L225.125 124.391Z" fill="white" fill-opacity="0.03"/>
<path d="M225.125 88.7031L222.356 88.7031L222.356 91.4725L220.743 91.4725L220.743 88.7031L217.988 88.7031L217.988 87.0899L220.743 87.0899L220.743 84.335L222.356 84.335L222.356 87.0899L225.125 87.0899L225.125 88.7031Z" fill="white" fill-opacity="0.03"/>
<path d="M225.125 53.0154L222.356 53.0154L222.356 55.7847L220.743 55.7847L220.743 53.0154L217.988 53.0154L217.988 51.4023L220.743 51.4023L220.743 48.6473L222.356 48.6473L222.356 51.4023L225.125 51.4023L225.125 53.0154Z" fill="white" fill-opacity="0.03"/>
<path d="M225.125 17.3277L222.356 17.3277L222.356 20.097L220.743 20.097L220.743 17.3277L217.988 17.3277L217.988 15.7145L220.743 15.7145L220.743 12.9595L222.356 12.9595L222.356 15.7145L225.125 15.7145L225.125 17.3277Z" fill="white" fill-opacity="0.03"/>
<path d="M225.125 -18.36L222.356 -18.36L222.356 -15.5906L220.743 -15.5906L220.743 -18.36L217.988 -18.36L217.988 -19.9732L220.743 -19.9732L220.743 -22.7282L222.356 -22.7282L222.356 -19.9732L225.125 -19.9732L225.125 -18.36Z" fill="white" fill-opacity="0.03"/>
<path d="M258.473 909.121L257.088 909.121L257.088 910.505L256.282 910.505L256.282 909.121L254.904 909.121L254.904 908.314L256.282 908.314L256.282 906.937L257.088 906.937L257.088 908.314L258.473 908.314L258.473 909.121Z" fill="white" fill-opacity="0.03"/>
<path d="M258.473 873.433L257.088 873.433L257.088 874.818L256.282 874.818L256.282 873.433L254.904 873.433L254.904 872.626L256.282 872.626L256.282 871.249L257.088 871.249L257.088 872.626L258.473 872.626L258.473 873.433Z" fill="white" fill-opacity="0.03"/>
<path d="M258.473 837.745L257.088 837.745L257.088 839.13L256.282 839.13L256.282 837.745L254.904 837.745L254.904 836.939L256.282 836.939L256.282 835.561L257.088 835.561L257.088 836.939L258.473 836.939L258.473 837.745Z" fill="white" fill-opacity="0.03"/>
<path d="M258.473 802.057L257.088 802.057L257.088 803.442L256.282 803.442L256.282 802.057L254.904 802.057L254.904 801.251L256.282 801.251L256.282 799.873L257.088 799.873L257.088 801.251L258.473 801.251L258.473 802.057Z" fill="white" fill-opacity="0.03"/>
<path d="M258.473 766.37L257.088 766.37L257.088 767.754L256.282 767.754L256.282 766.37L254.904 766.37L254.904 765.563L256.282 765.563L256.282 764.186L257.088 764.186L257.088 765.563L258.473 765.563L258.473 766.37Z" fill="white" fill-opacity="0.03"/>
<path d="M258.473 730.682L257.088 730.682L257.088 732.067L256.282 732.067L256.282 730.682L254.904 730.682L254.904 729.876L256.282 729.876L256.282 728.498L257.088 728.498L257.088 729.876L258.473 729.876L258.473 730.682Z" fill="white" fill-opacity="0.03"/>
<path d="M258.473 694.994L257.088 694.994L257.088 696.379L256.282 696.379L256.282 694.994L254.904 694.994L254.904 694.188L256.282 694.188L256.282 692.81L257.088 692.81L257.088 694.188L258.473 694.188L258.473 694.994Z" fill="white" fill-opacity="0.03"/>
<path d="M258.473 659.307L257.088 659.307L257.088 660.691L256.282 660.691L256.282 659.307L254.904 659.307L254.904 658.5L256.282 658.5L256.282 657.122L257.088 657.122L257.088 658.5L258.473 658.5L258.473 659.307Z" fill="white" fill-opacity="0.03"/>
<path d="M258.473 623.619L257.088 623.619L257.088 625.003L256.282 625.003L256.282 623.619L254.904 623.619L254.904 622.812L256.282 622.812L256.282 621.435L257.088 621.435L257.088 622.812L258.473 622.812L258.473 623.619Z" fill="white" fill-opacity="0.03"/>
<path d="M258.473 587.931L257.088 587.931L257.088 589.316L256.282 589.316L256.282 587.931L254.904 587.931L254.904 587.125L256.282 587.125L256.282 585.747L257.088 585.747L257.088 587.125L258.473 587.125L258.473 587.931Z" fill="white" fill-opacity="0.03"/>
<path d="M258.473 552.243L257.088 552.243L257.088 553.628L256.282 553.628L256.282 552.243L254.904 552.243L254.904 551.437L256.282 551.437L256.282 550.059L257.088 550.059L257.088 551.437L258.473 551.437L258.473 552.243Z" fill="white" fill-opacity="0.03"/>
<path d="M258.473 516.556L257.088 516.556L257.088 517.94L256.282 517.94L256.282 516.556L254.904 516.556L254.904 515.749L256.282 515.749L256.282 514.372L257.088 514.372L257.088 515.749L258.473 515.749L258.473 516.556Z" fill="white" fill-opacity="0.03"/>
<path d="M258.473 480.868L257.088 480.868L257.088 482.253L256.282 482.253L256.282 480.868L254.904 480.868L254.904 480.061L256.282 480.061L256.282 478.684L257.088 478.684L257.088 480.061L258.473 480.061L258.473 480.868Z" fill="white" fill-opacity="0.03"/>
<path d="M258.473 445.18L257.088 445.18L257.088 446.565L256.282 446.565L256.282 445.18L254.904 445.18L254.904 444.374L256.282 444.374L256.282 442.996L257.088 442.996L257.088 444.374L258.473 444.374L258.473 445.18Z" fill="white" fill-opacity="0.03"/>
<path d="M258.473 409.492L257.088 409.492L257.088 410.877L256.282 410.877L256.282 409.492L254.904 409.492L254.904 408.686L256.282 408.686L256.282 407.308L257.088 407.308L257.088 408.686L258.473 408.686L258.473 409.492Z" fill="white" fill-opacity="0.03"/>
<path d="M258.473 373.805L257.088 373.805L257.088 375.189L256.282 375.189L256.282 373.805L254.904 373.805L254.904 372.998L256.282 372.998L256.282 371.621L257.088 371.621L257.088 372.998L258.473 372.998L258.473 373.805Z" fill="white" fill-opacity="0.03"/>
<path d="M258.473 338.117L257.088 338.117L257.088 339.502L256.282 339.502L256.282 338.117L254.904 338.117L254.904 337.31L256.282 337.31L256.282 335.933L257.088 335.933L257.088 337.31L258.473 337.31L258.473 338.117Z" fill="white" fill-opacity="0.03"/>
<path d="M258.473 302.429L257.088 302.429L257.088 303.814L256.282 303.814L256.282 302.429L254.904 302.429L254.904 301.623L256.282 301.623L256.282 300.245L257.088 300.245L257.088 301.623L258.473 301.623L258.473 302.429Z" fill="white" fill-opacity="0.03"/>
<path d="M258.473 266.742L257.088 266.742L257.088 268.126L256.282 268.126L256.282 266.742L254.904 266.742L254.904 265.935L256.282 265.935L256.282 264.557L257.088 264.557L257.088 265.935L258.473 265.935L258.473 266.742Z" fill="white" fill-opacity="0.03"/>
<path d="M258.473 231.054L257.088 231.054L257.088 232.438L256.282 232.438L256.282 231.054L254.904 231.054L254.904 230.247L256.282 230.247L256.282 228.87L257.088 228.87L257.088 230.247L258.473 230.247L258.473 231.054Z" fill="white" fill-opacity="0.03"/>
<path d="M258.473 195.366L257.088 195.366L257.088 196.751L256.282 196.751L256.282 195.366L254.904 195.366L254.904 194.56L256.282 194.56L256.282 193.182L257.088 193.182L257.088 194.56L258.473 194.56L258.473 195.366Z" fill="white" fill-opacity="0.03"/>
<path d="M258.473 159.678L257.088 159.678L257.088 161.063L256.282 161.063L256.282 159.678L254.904 159.678L254.904 158.872L256.282 158.872L256.282 157.494L257.088 157.494L257.088 158.872L258.473 158.872L258.473 159.678Z" fill="white" fill-opacity="0.03"/>
<path d="M258.473 123.991L257.088 123.991L257.088 125.375L256.282 125.375L256.282 123.991L254.904 123.991L254.904 123.184L256.282 123.184L256.282 121.806L257.088 121.806L257.088 123.184L258.473 123.184L258.473 123.991Z" fill="white" fill-opacity="0.03"/>
<path d="M258.473 88.3029L257.088 88.3029L257.088 89.6876L256.282 89.6876L256.282 88.3029L254.904 88.3029L254.904 87.4963L256.282 87.4963L256.282 86.1187L257.088 86.1187L257.088 87.4963L258.473 87.4963L258.473 88.3029Z" fill="white" fill-opacity="0.03"/>
<path d="M258.473 52.6152L257.088 52.6152L257.088 53.9998L256.282 53.9998L256.282 52.6152L254.904 52.6152L254.904 51.8085L256.282 51.8085L256.282 50.431L257.088 50.431L257.088 51.8085L258.473 51.8085L258.473 52.6152Z" fill="white" fill-opacity="0.03"/>
<path d="M258.473 16.9274L257.088 16.9274L257.088 18.3121L256.282 18.3121L256.282 16.9274L254.904 16.9274L254.904 16.1209L256.282 16.1209L256.282 14.7432L257.088 14.7432L257.088 16.1209L258.473 16.1209L258.473 16.9274Z" fill="white" fill-opacity="0.03"/>
<path d="M258.473 -18.7603L257.088 -18.7603L257.088 -17.3757L256.282 -17.3757L256.282 -18.7603L254.904 -18.7603L254.904 -19.5668L256.282 -19.5668L256.282 -20.9445L257.088 -20.9445L257.088 -19.5668L258.473 -19.5668L258.473 -18.7603Z" fill="white" fill-opacity="0.03"/>
</svg>
