<svg width="1728" height="259" viewBox="0 0 1728 259" fill="none" xmlns="http://www.w3.org/2000/svg">
<path d="M-84.9225 28.5502V17.4727H-96V11.0204H-84.9225V0H-78.4702V11.0204H-67.4498V17.4727H-78.4702V28.5502H-84.9225Z" fill="black" fill-opacity="0.03"/>
<path d="M-49.2348 28.5502V17.4727H-60.3123V11.0204H-49.2348V0H-42.7825V11.0204H-31.7621V17.4727H-42.7825V28.5502H-49.2348Z" fill="black" fill-opacity="0.03"/>
<path d="M-13.5471 28.5502V17.4727H-24.6245V11.0204H-13.5471V0H-7.09472V11.0204H3.92565V17.4727H-7.09472V28.5502H-13.5471Z" fill="black" fill-opacity="0.03"/>
<path d="M22.1407 28.5502V17.4727H11.0632V11.0204H22.1407V0H28.593V11.0204H39.6134V17.4727H28.593V28.5502H22.1407Z" fill="black" fill-opacity="0.03"/>
<path d="M57.8284 28.5502V17.4727H46.7509V11.0204H57.8284V0H64.2807V11.0204H75.3011V17.4727H64.2807V28.5502H57.8284Z" fill="black" fill-opacity="0.03"/>
<path d="M93.5161 28.5502V17.4727H82.4387V11.0204H93.5161V0H99.9685V11.0204H110.989V17.4727H99.9685V28.5502H93.5161Z" fill="black" fill-opacity="0.03"/>
<path d="M129.204 28.5502V17.4727H118.126V11.0204H129.204V0H135.656V11.0204H146.677V17.4727H135.656V28.5502H129.204Z" fill="black" fill-opacity="0.03"/>
<path d="M164.892 28.5502V17.4727H153.814V11.0204H164.892V0H171.344V11.0204H182.364V17.4727H171.344V28.5502H164.892Z" fill="black" fill-opacity="0.03"/>
<path d="M200.579 28.5502V17.4727H189.502V11.0204H200.579V0H207.032V11.0204H218.052V17.4727H207.032V28.5502H200.579Z" fill="black" fill-opacity="0.03"/>
<path d="M236.267 28.5502V17.4727H225.19V11.0204H236.267V0H242.719V11.0204H253.74V17.4727H242.719V28.5502H236.267Z" fill="black" fill-opacity="0.03"/>
<path d="M271.955 28.5502V17.4727H260.877V11.0204H271.955V0H278.407V11.0204H289.428V17.4727H278.407V28.5502H271.955Z" fill="black" fill-opacity="0.03"/>
<path d="M307.643 28.5502V17.4727H296.565V11.0204H307.643V0H314.095V11.0204H325.115V17.4727H314.095V28.5502H307.643Z" fill="black" fill-opacity="0.03"/>
<path d="M343.33 28.5502V17.4727H332.253V11.0204H343.33V0H349.783V11.0204H360.803V17.4727H349.783V28.5502H343.33Z" fill="black" fill-opacity="0.03"/>
<path d="M379.018 28.5502V17.4727H367.941V11.0204H379.018V0H385.47V11.0204H396.491V17.4727H385.47V28.5502H379.018Z" fill="black" fill-opacity="0.03"/>
<path d="M414.706 28.5502V17.4727H403.628V11.0204H414.706V0H421.158V11.0204H432.178V17.4727H421.158V28.5502H414.706Z" fill="black" fill-opacity="0.03"/>
<path d="M450.393 28.5502V17.4727H439.316V11.0204H450.393V0H456.846V11.0204H467.866V17.4727H456.846V28.5502H450.393Z" fill="black" fill-opacity="0.03"/>
<path d="M486.081 28.5502V17.4727H475.004V11.0204H486.081V0H492.534V11.0204H503.554V17.4727H492.534V28.5502H486.081Z" fill="black" fill-opacity="0.03"/>
<path d="M521.769 28.5502V17.4727H510.691V11.0204H521.769V0H528.221V11.0204H539.242V17.4727H528.221V28.5502H521.769Z" fill="black" fill-opacity="0.03"/>
<path d="M557.457 28.5502V17.4727H546.379V11.0204H557.457V0H563.909V11.0204H574.929V17.4727H563.909V28.5502H557.457Z" fill="black" fill-opacity="0.03"/>
<path d="M593.144 28.5502V17.4727H582.067V11.0204H593.144V0H599.597V11.0204H610.617V17.4727H599.597V28.5502H593.144Z" fill="black" fill-opacity="0.03"/>
<path d="M628.832 28.5502V17.4727H617.755V11.0204H628.832V0H635.285V11.0204H646.305V17.4727H635.285V28.5502H628.832Z" fill="black" fill-opacity="0.03"/>
<path d="M664.52 28.5502V17.4727H653.442V11.0204H664.52V0H670.972V11.0204H681.993V17.4727H670.972V28.5502H664.52Z" fill="black" fill-opacity="0.03"/>
<path d="M700.208 28.5502V17.4727H689.13V11.0204H700.208V0H706.66V11.0204H717.68V17.4727H706.66V28.5502H700.208Z" fill="black" fill-opacity="0.03"/>
<path d="M735.895 28.5502V17.4727H724.818V11.0204H735.895V0H742.348V11.0204H753.368V17.4727H742.348V28.5502H735.895Z" fill="black" fill-opacity="0.03"/>
<path d="M771.583 28.5502V17.4727H760.506V11.0204H771.583V0H778.035V11.0204H789.056V17.4727H778.035V28.5502H771.583Z" fill="black" fill-opacity="0.03"/>
<path d="M807.271 28.5502V17.4727H796.193V11.0204H807.271V0H813.723V11.0204H824.744V17.4727H813.723V28.5502H807.271Z" fill="black" fill-opacity="0.03"/>
<path d="M842.959 28.5502V17.4727H831.881V11.0204H842.959V0H849.411V11.0204H860.431V17.4727H849.411V28.5502H842.959Z" fill="black" fill-opacity="0.03"/>
<path d="M878.646 28.5502V17.4727H867.569V11.0204H878.646V0H885.099V11.0204H896.119V17.4727H885.099V28.5502H878.646Z" fill="black" fill-opacity="0.03"/>
<path d="M914.334 28.5502V17.4727H903.257V11.0204H914.334V0H920.786V11.0204H931.807V17.4727H920.786V28.5502H914.334Z" fill="black" fill-opacity="0.03"/>
<path d="M950.022 28.5502V17.4727H938.944V11.0204H950.022V0H956.474V11.0204H967.494V17.4727H956.474V28.5502H950.022Z" fill="black" fill-opacity="0.03"/>
<path d="M985.709 28.5502V17.4727H974.632V11.0204H985.709V0H992.162V11.0204H1003.18V17.4727H992.162V28.5502H985.709Z" fill="black" fill-opacity="0.03"/>
<path d="M1021.4 28.5502V17.4727H1010.32V11.0204H1021.4V0H1027.85V11.0204H1038.87V17.4727H1027.85V28.5502H1021.4Z" fill="black" fill-opacity="0.03"/>
<path d="M1057.08 28.5502V17.4727H1046.01V11.0204H1057.08V0H1063.54V11.0204H1074.56V17.4727H1063.54V28.5502H1057.08Z" fill="black" fill-opacity="0.03"/>
<path d="M1092.77 28.5502V17.4727H1081.7V11.0204H1092.77V0H1099.23V11.0204H1110.25V17.4727H1099.23V28.5502H1092.77Z" fill="black" fill-opacity="0.03"/>
<path d="M1128.46 28.5502V17.4727H1117.38V11.0204H1128.46V0H1134.91V11.0204H1145.93V17.4727H1134.91V28.5502H1128.46Z" fill="black" fill-opacity="0.03"/>
<path d="M1164.15 28.5502V17.4727H1153.07V11.0204H1164.15V0H1170.6V11.0204H1181.62V17.4727H1170.6V28.5502H1164.15Z" fill="black" fill-opacity="0.03"/>
<path d="M1199.84 28.5502V17.4727H1188.76V11.0204H1199.84V0H1206.29V11.0204H1217.31V17.4727H1206.29V28.5502H1199.84Z" fill="black" fill-opacity="0.03"/>
<path d="M1235.52 28.5502V17.4727H1224.45V11.0204H1235.52V0H1241.98V11.0204H1253V17.4727H1241.98V28.5502H1235.52Z" fill="black" fill-opacity="0.03"/>
<path d="M1271.21 28.5502V17.4727H1260.13V11.0204H1271.21V0H1277.66V11.0204H1288.68V17.4727H1277.66V28.5502H1271.21Z" fill="black" fill-opacity="0.03"/>
<path d="M1306.9 28.5502V17.4727H1295.82V11.0204H1306.9V0H1313.35V11.0204H1324.37V17.4727H1313.35V28.5502H1306.9Z" fill="black" fill-opacity="0.03"/>
<path d="M1342.59 28.5502V17.4727H1331.51V11.0204H1342.59V0H1349.04V11.0204H1360.06V17.4727H1349.04V28.5502H1342.59Z" fill="black" fill-opacity="0.03"/>
<path d="M1378.27 28.5502V17.4727H1367.2V11.0204H1378.27V0H1384.73V11.0204H1395.75V17.4727H1384.73V28.5502H1378.27Z" fill="black" fill-opacity="0.03"/>
<path d="M1413.96 28.5502V17.4727H1402.88V11.0204H1413.96V0H1420.41V11.0204H1431.43V17.4727H1420.41V28.5502H1413.96Z" fill="black" fill-opacity="0.03"/>
<path d="M1449.65 28.5502V17.4727H1438.57V11.0204H1449.65V0H1456.1V11.0204H1467.12V17.4727H1456.1V28.5502H1449.65Z" fill="black" fill-opacity="0.03"/>
<path d="M1485.34 28.5502V17.4727H1474.26V11.0204H1485.34V0H1491.79V11.0204H1502.81V17.4727H1491.79V28.5502H1485.34Z" fill="black" fill-opacity="0.03"/>
<path d="M1521.03 28.5502V17.4727H1509.95V11.0204H1521.03V0H1527.48V11.0204H1538.5V17.4727H1527.48V28.5502H1521.03Z" fill="black" fill-opacity="0.03"/>
<path d="M1556.71 28.5502V17.4727H1545.64V11.0204H1556.71V0H1563.17V11.0204H1574.19V17.4727H1563.17V28.5502H1556.71Z" fill="black" fill-opacity="0.03"/>
<path d="M1592.4 28.5502V17.4727H1581.32V11.0204H1592.4V0H1598.85V11.0204H1609.87V17.4727H1598.85V28.5502H1592.4Z" fill="black" fill-opacity="0.03"/>
<path d="M1628.09 28.5502V17.4727H1617.01V11.0204H1628.09V0H1634.54V11.0204H1645.56V17.4727H1634.54V28.5502H1628.09Z" fill="black" fill-opacity="0.03"/>
<path d="M1663.78 28.5502V17.4727H1652.7V11.0204H1663.78V0H1670.23V11.0204H1681.25V17.4727H1670.23V28.5502H1663.78Z" fill="black" fill-opacity="0.03"/>
<path d="M1699.46 28.5502V17.4727H1688.39V11.0204H1699.46V0H1705.92V11.0204H1716.94V17.4727H1705.92V28.5502H1699.46Z" fill="black" fill-opacity="0.03"/>
<path d="M1735.15 28.5502V17.4727H1724.07V11.0204H1735.15V0H1741.6V11.0204H1752.62V17.4727H1741.6V28.5502H1735.15Z" fill="black" fill-opacity="0.03"/>
<path d="M1770.84 28.5502V17.4727H1759.76V11.0204H1770.84V0H1777.29V11.0204H1788.31V17.4727H1777.29V28.5502H1770.84Z" fill="black" fill-opacity="0.03"/>
<path d="M1806.53 28.5502V17.4727H1795.45V11.0204H1806.53V0H1812.98V11.0204H1824V17.4727H1812.98V28.5502H1806.53Z" fill="black" fill-opacity="0.03"/>
<path d="M-84.5223 61.8977V52.205H-94.2151V46.5592H-84.5223V36.9163H-78.8765V46.5592H-69.2336V52.205H-78.8765V61.8977H-84.5223Z" fill="black" fill-opacity="0.03"/>
<path d="M-48.8345 61.8977V52.205H-58.5273V46.5592H-48.8345V36.9163H-43.1887V46.5592H-33.5459V52.205H-43.1887V61.8977H-48.8345Z" fill="black" fill-opacity="0.03"/>
<path d="M-13.1468 61.8977V52.205H-22.8396V46.5592H-13.1468V36.9163H-7.501V46.5592H2.14183V52.205H-7.501V61.8977H-13.1468Z" fill="black" fill-opacity="0.03"/>
<path d="M22.5409 61.8977V52.205H12.8481V46.5592H22.5409V36.9163H28.1867V46.5592H37.8296V52.205H28.1867V61.8977H22.5409Z" fill="black" fill-opacity="0.03"/>
<path d="M58.2287 61.8977V52.205H48.5359V46.5592H58.2287V36.9163H63.8745V46.5592H73.5173V52.205H63.8745V61.8977H58.2287Z" fill="black" fill-opacity="0.03"/>
<path d="M93.9164 61.8977V52.205H84.2236V46.5592H93.9164V36.9163H99.5622V46.5592H109.205V52.205H99.5622V61.8977H93.9164Z" fill="black" fill-opacity="0.03"/>
<path d="M129.604 61.8977V52.205H119.911V46.5592H129.604V36.9163H135.25V46.5592H144.893V52.205H135.25V61.8977H129.604Z" fill="black" fill-opacity="0.03"/>
<path d="M165.292 61.8977V52.205H155.599V46.5592H165.292V36.9163H170.938V46.5592H180.58V52.205H170.938V61.8977H165.292Z" fill="black" fill-opacity="0.03"/>
<path d="M200.98 61.8977V52.205H191.287V46.5592H200.98V36.9163H206.625V46.5592H216.268V52.205H206.625V61.8977H200.98Z" fill="black" fill-opacity="0.03"/>
<path d="M236.667 61.8977V52.205H226.975V46.5592H236.667V36.9163H242.313V46.5592H251.956V52.205H242.313V61.8977H236.667Z" fill="black" fill-opacity="0.03"/>
<path d="M272.355 61.8977V52.205H262.662V46.5592H272.355V36.9163H278.001V46.5592H287.644V52.205H278.001V61.8977H272.355Z" fill="black" fill-opacity="0.03"/>
<path d="M308.043 61.8977V52.205H298.35V46.5592H308.043V36.9163H313.689V46.5592H323.331V52.205H313.689V61.8977H308.043Z" fill="black" fill-opacity="0.03"/>
<path d="M343.731 61.8977V52.205H334.038V46.5592H343.731V36.9163H349.376V46.5592H359.019V52.205H349.376V61.8977H343.731Z" fill="black" fill-opacity="0.03"/>
<path d="M379.418 61.8977V52.205H369.725V46.5592H379.418V36.9163H385.064V46.5592H394.707V52.205H385.064V61.8977H379.418Z" fill="black" fill-opacity="0.03"/>
<path d="M415.106 61.8977V52.205H405.413V46.5592H415.106V36.9163H420.752V46.5592H430.395V52.205H420.752V61.8977H415.106Z" fill="black" fill-opacity="0.03"/>
<path d="M450.794 61.8977V52.205H441.101V46.5592H450.794V36.9163H456.44V46.5592H466.082V52.205H456.44V61.8977H450.794Z" fill="black" fill-opacity="0.03"/>
<path d="M486.481 61.8977V52.205H476.789V46.5592H486.481V36.9163H492.127V46.5592H501.77V52.205H492.127V61.8977H486.481Z" fill="black" fill-opacity="0.03"/>
<path d="M522.169 61.8977V52.205H512.476V46.5592H522.169V36.9163H527.815V46.5592H537.458V52.205H527.815V61.8977H522.169Z" fill="black" fill-opacity="0.03"/>
<path d="M557.857 61.8977V52.205H548.164V46.5592H557.857V36.9163H563.503V46.5592H573.146V52.205H563.503V61.8977H557.857Z" fill="black" fill-opacity="0.03"/>
<path d="M593.545 61.8977V52.205H583.852V46.5592H593.545V36.9163H599.19V46.5592H608.833V52.205H599.19V61.8977H593.545Z" fill="black" fill-opacity="0.03"/>
<path d="M629.232 61.8977V52.205H619.54V46.5592H629.232V36.9163H634.878V46.5592H644.521V52.205H634.878V61.8977H629.232Z" fill="black" fill-opacity="0.03"/>
<path d="M664.92 61.8977V52.205H655.227V46.5592H664.92V36.9163H670.566V46.5592H680.209V52.205H670.566V61.8977H664.92Z" fill="black" fill-opacity="0.03"/>
<path d="M700.608 61.8977V52.205H690.915V46.5592H700.608V36.9163H706.254V46.5592H715.896V52.205H706.254V61.8977H700.608Z" fill="black" fill-opacity="0.03"/>
<path d="M736.296 61.8977V52.205H726.603V46.5592H736.296V36.9163H741.941V46.5592H751.584V52.205H741.941V61.8977H736.296Z" fill="black" fill-opacity="0.03"/>
<path d="M771.983 61.8977V52.205H762.291V46.5592H771.983V36.9163H777.629V46.5592H787.272V52.205H777.629V61.8977H771.983Z" fill="black" fill-opacity="0.03"/>
<path d="M807.671 61.8977V52.205H797.978V46.5592H807.671V36.9163H813.317V46.5592H822.96V52.205H813.317V61.8977H807.671Z" fill="black" fill-opacity="0.03"/>
<path d="M843.359 61.8977V52.205H833.666V46.5592H843.359V36.9163H849.005V46.5592H858.647V52.205H849.005V61.8977H843.359Z" fill="black" fill-opacity="0.03"/>
<path d="M879.047 61.8977V52.205H869.354V46.5592H879.047V36.9163H884.692V46.5592H894.335V52.205H884.692V61.8977H879.047Z" fill="black" fill-opacity="0.03"/>
<path d="M914.734 61.8977V52.205H905.041V46.5592H914.734V36.9163H920.38V46.5592H930.023V52.205H920.38V61.8977H914.734Z" fill="black" fill-opacity="0.03"/>
<path d="M950.422 61.8977V52.205H940.729V46.5592H950.422V36.9163H956.068V46.5592H965.711V52.205H956.068V61.8977H950.422Z" fill="black" fill-opacity="0.03"/>
<path d="M986.11 61.8977V52.205H976.417V46.5592H986.11V36.9163H991.756V46.5592H1001.4V52.205H991.756V61.8977H986.11Z" fill="black" fill-opacity="0.03"/>
<path d="M1021.8 61.8977V52.205H1012.1V46.5592H1021.8V36.9163H1027.44V46.5592H1037.09V52.205H1027.44V61.8977H1021.8Z" fill="black" fill-opacity="0.03"/>
<path d="M1057.49 61.8977V52.205H1047.79V46.5592H1057.49V36.9163H1063.13V46.5592H1072.77V52.205H1063.13V61.8977H1057.49Z" fill="black" fill-opacity="0.03"/>
<path d="M1093.17 61.8977V52.205H1083.48V46.5592H1093.17V36.9163H1098.82V46.5592H1108.46V52.205H1098.82V61.8977H1093.17Z" fill="black" fill-opacity="0.03"/>
<path d="M1128.86 61.8977V52.205H1119.17V46.5592H1128.86V36.9163H1134.51V46.5592H1144.15V52.205H1134.51V61.8977H1128.86Z" fill="black" fill-opacity="0.03"/>
<path d="M1164.55 61.8977V52.205H1154.86V46.5592H1164.55V36.9163H1170.19V46.5592H1179.84V52.205H1170.19V61.8977H1164.55Z" fill="black" fill-opacity="0.03"/>
<path d="M1200.24 61.8977V52.205H1190.54V46.5592H1200.24V36.9163H1205.88V46.5592H1215.52V52.205H1205.88V61.8977H1200.24Z" fill="black" fill-opacity="0.03"/>
<path d="M1235.92 61.8977V52.205H1226.23V46.5592H1235.92V36.9163H1241.57V46.5592H1251.21V52.205H1241.57V61.8977H1235.92Z" fill="black" fill-opacity="0.03"/>
<path d="M1271.61 61.8977V52.205H1261.92V46.5592H1271.61V36.9163H1277.26V46.5592H1286.9V52.205H1277.26V61.8977H1271.61Z" fill="black" fill-opacity="0.03"/>
<path d="M1307.3 61.8977V52.205H1297.61V46.5592H1307.3V36.9163H1312.95V46.5592H1322.59V52.205H1312.95V61.8977H1307.3Z" fill="black" fill-opacity="0.03"/>
<path d="M1342.99 61.8977V52.205H1333.29V46.5592H1342.99V36.9163H1348.63V46.5592H1358.28V52.205H1348.63V61.8977H1342.99Z" fill="black" fill-opacity="0.03"/>
<path d="M1378.67 61.8977V52.205H1368.98V46.5592H1378.67V36.9163H1384.32V46.5592H1393.96V52.205H1384.32V61.8977H1378.67Z" fill="black" fill-opacity="0.03"/>
<path d="M1414.36 61.8977V52.205H1404.67V46.5592H1414.36V36.9163H1420.01V46.5592H1429.65V52.205H1420.01V61.8977H1414.36Z" fill="black" fill-opacity="0.03"/>
<path d="M1450.05 61.8977V52.205H1440.36V46.5592H1450.05V36.9163H1455.7V46.5592H1465.34V52.205H1455.7V61.8977H1450.05Z" fill="black" fill-opacity="0.03"/>
<path d="M1485.74 61.8977V52.205H1476.05V46.5592H1485.74V36.9163H1491.38V46.5592H1501.03V52.205H1491.38V61.8977H1485.74Z" fill="black" fill-opacity="0.03"/>
<path d="M1521.43 61.8977V52.205H1511.73V46.5592H1521.43V36.9163H1527.07V46.5592H1536.71V52.205H1527.07V61.8977H1521.43Z" fill="black" fill-opacity="0.03"/>
<path d="M1557.11 61.8977V52.205H1547.42V46.5592H1557.11V36.9163H1562.76V46.5592H1572.4V52.205H1562.76V61.8977H1557.11Z" fill="black" fill-opacity="0.03"/>
<path d="M1592.8 61.8977V52.205H1583.11V46.5592H1592.8V36.9163H1598.45V46.5592H1608.09V52.205H1598.45V61.8977H1592.8Z" fill="black" fill-opacity="0.03"/>
<path d="M1628.49 61.8977V52.205H1618.8V46.5592H1628.49V36.9163H1634.13V46.5592H1643.78V52.205H1634.13V61.8977H1628.49Z" fill="black" fill-opacity="0.03"/>
<path d="M1664.18 61.8977V52.205H1654.48V46.5592H1664.18V36.9163H1669.82V46.5592H1679.47V52.205H1669.82V61.8977H1664.18Z" fill="black" fill-opacity="0.03"/>
<path d="M1699.86 61.8977V52.205H1690.17V46.5592H1699.86V36.9163H1705.51V46.5592H1715.15V52.205H1705.51V61.8977H1699.86Z" fill="black" fill-opacity="0.03"/>
<path d="M1735.55 61.8977V52.205H1725.86V46.5592H1735.55V36.9163H1741.2V46.5592H1750.84V52.205H1741.2V61.8977H1735.55Z" fill="black" fill-opacity="0.03"/>
<path d="M1771.24 61.8977V52.205H1761.55V46.5592H1771.24V36.9163H1776.89V46.5592H1786.53V52.205H1776.89V61.8977H1771.24Z" fill="black" fill-opacity="0.03"/>
<path d="M1806.93 61.8977V52.205H1797.23V46.5592H1806.93V36.9163H1812.57V46.5592H1822.22V52.205H1812.57V61.8977H1806.93Z" fill="black" fill-opacity="0.03"/>
<path d="M-84.122 94.0752V85.7671H-92.4301V80.9278H-84.122V72.6626H-79.2827V80.9278H-71.0175V85.7671H-79.2827V94.0752H-84.122Z" fill="black" fill-opacity="0.03"/>
<path d="M-48.4343 94.0752V85.7671H-56.7424V80.9278H-48.4343V72.6626H-43.595V80.9278H-35.3297V85.7671H-43.595V94.0752H-48.4343Z" fill="black" fill-opacity="0.03"/>
<path d="M-12.7465 94.0752V85.7671H-21.0546V80.9278H-12.7465V72.6626H-7.90728V80.9278H0.357993V85.7671H-7.90728V94.0752H-12.7465Z" fill="black" fill-opacity="0.03"/>
<path d="M22.9412 94.0752V85.7671H14.6331V80.9278H22.9412V72.6626H27.7805V80.9278H36.0457V85.7671H27.7805V94.0752H22.9412Z" fill="black" fill-opacity="0.03"/>
<path d="M58.6289 94.0752V85.7671H50.3208V80.9278H58.6289V72.6626H63.4682V80.9278H71.7335V85.7671H63.4682V94.0752H58.6289Z" fill="black" fill-opacity="0.03"/>
<path d="M94.3167 94.0752V85.7671H86.0085V80.9278H94.3167V72.6626H99.1559V80.9278H107.421V85.7671H99.1559V94.0752H94.3167Z" fill="black" fill-opacity="0.03"/>
<path d="M130.004 94.0752V85.7671H121.696V80.9278H130.004V72.6626H134.844V80.9278H143.109V85.7671H134.844V94.0752H130.004Z" fill="black" fill-opacity="0.03"/>
<path d="M165.692 94.0752V85.7671H157.384V80.9278H165.692V72.6626H170.531V80.9278H178.797V85.7671H170.531V94.0752H165.692Z" fill="black" fill-opacity="0.03"/>
<path d="M201.38 94.0752V85.7671H193.072V80.9278H201.38V72.6626H206.219V80.9278H214.484V85.7671H206.219V94.0752H201.38Z" fill="black" fill-opacity="0.03"/>
<path d="M237.068 94.0752V85.7671H228.759V80.9278H237.068V72.6626H241.907V80.9278H250.172V85.7671H241.907V94.0752H237.068Z" fill="black" fill-opacity="0.03"/>
<path d="M272.755 94.0752V85.7671H264.447V80.9278H272.755V72.6626H277.595V80.9278H285.86V85.7671H277.595V94.0752H272.755Z" fill="black" fill-opacity="0.03"/>
<path d="M308.443 94.0752V85.7671H300.135V80.9278H308.443V72.6626H313.282V80.9278H321.548V85.7671H313.282V94.0752H308.443Z" fill="black" fill-opacity="0.03"/>
<path d="M344.131 94.0752V85.7671H335.823V80.9278H344.131V72.6626H348.97V80.9278H357.235V85.7671H348.97V94.0752H344.131Z" fill="black" fill-opacity="0.03"/>
<path d="M379.819 94.0752V85.7671H371.51V80.9278H379.819V72.6626H384.658V80.9278H392.923V85.7671H384.658V94.0752H379.819Z" fill="black" fill-opacity="0.03"/>
<path d="M415.506 94.0752V85.7671H407.198V80.9278H415.506V72.6626H420.345V80.9278H428.611V85.7671H420.345V94.0752H415.506Z" fill="black" fill-opacity="0.03"/>
<path d="M451.194 94.0752V85.7671H442.886V80.9278H451.194V72.6626H456.033V80.9278H464.299V85.7671H456.033V94.0752H451.194Z" fill="black" fill-opacity="0.03"/>
<path d="M486.882 94.0752V85.7671H478.574V80.9278H486.882V72.6626H491.721V80.9278H499.986V85.7671H491.721V94.0752H486.882Z" fill="black" fill-opacity="0.03"/>
<path d="M522.569 94.0752V85.7671H514.261V80.9278H522.569V72.6626H527.409V80.9278H535.674V85.7671H527.409V94.0752H522.569Z" fill="black" fill-opacity="0.03"/>
<path d="M558.257 94.0752V85.7671H549.949V80.9278H558.257V72.6626H563.096V80.9278H571.362V85.7671H563.096V94.0752H558.257Z" fill="black" fill-opacity="0.03"/>
<path d="M593.945 94.0752V85.7671H585.637V80.9278H593.945V72.6626H598.784V80.9278H607.049V85.7671H598.784V94.0752H593.945Z" fill="black" fill-opacity="0.03"/>
<path d="M629.633 94.0752V85.7671H621.325V80.9278H629.633V72.6626H634.472V80.9278H642.737V85.7671H634.472V94.0752H629.633Z" fill="black" fill-opacity="0.03"/>
<path d="M665.32 94.0752V85.7671H657.012V80.9278H665.32V72.6626H670.16V80.9278H678.425V85.7671H670.16V94.0752H665.32Z" fill="black" fill-opacity="0.03"/>
<path d="M701.008 94.0752V85.7671H692.7V80.9278H701.008V72.6626H705.847V80.9278H714.113V85.7671H705.847V94.0752H701.008Z" fill="black" fill-opacity="0.03"/>
<path d="M736.696 94.0752V85.7671H728.388V80.9278H736.696V72.6626H741.535V80.9278H749.8V85.7671H741.535V94.0752H736.696Z" fill="black" fill-opacity="0.03"/>
<path d="M772.384 94.0752V85.7671H764.075V80.9278H772.384V72.6626H777.223V80.9278H785.488V85.7671H777.223V94.0752H772.384Z" fill="black" fill-opacity="0.03"/>
<path d="M808.071 94.0752V85.7671H799.763V80.9278H808.071V72.6626H812.911V80.9278H821.176V85.7671H812.911V94.0752H808.071Z" fill="black" fill-opacity="0.03"/>
<path d="M843.759 94.0752V85.7671H835.451V80.9278H843.759V72.6626H848.598V80.9278H856.864V85.7671H848.598V94.0752H843.759Z" fill="black" fill-opacity="0.03"/>
<path d="M879.447 94.0752V85.7671H871.139V80.9278H879.447V72.6626H884.286V80.9278H892.551V85.7671H884.286V94.0752H879.447Z" fill="black" fill-opacity="0.03"/>
<path d="M915.135 94.0752V85.7671H906.826V80.9278H915.135V72.6626H919.974V80.9278H928.239V85.7671H919.974V94.0752H915.135Z" fill="black" fill-opacity="0.03"/>
<path d="M950.822 94.0752V85.7671H942.514V80.9278H950.822V72.6626H955.662V80.9278H963.927V85.7671H955.662V94.0752H950.822Z" fill="black" fill-opacity="0.03"/>
<path d="M986.51 94.0752V85.7671H978.202V80.9278H986.51V72.6626H991.349V80.9278H999.615V85.7671H991.349V94.0752H986.51Z" fill="black" fill-opacity="0.03"/>
<path d="M1022.2 94.0752V85.7671H1013.89V80.9278H1022.2V72.6626H1027.04V80.9278H1035.3V85.7671H1027.04V94.0752H1022.2Z" fill="black" fill-opacity="0.03"/>
<path d="M1057.89 94.0752V85.7671H1049.58V80.9278H1057.89V72.6626H1062.72V80.9278H1070.99V85.7671H1062.72V94.0752H1057.89Z" fill="black" fill-opacity="0.03"/>
<path d="M1093.57 94.0752V85.7671H1085.27V80.9278H1093.57V72.6626H1098.41V80.9278H1106.68V85.7671H1098.41V94.0752H1093.57Z" fill="black" fill-opacity="0.03"/>
<path d="M1129.26 94.0752V85.7671H1120.95V80.9278H1129.26V72.6626H1134.1V80.9278H1142.37V85.7671H1134.1V94.0752H1129.26Z" fill="black" fill-opacity="0.03"/>
<path d="M1164.95 94.0752V85.7671H1156.64V80.9278H1164.95V72.6626H1169.79V80.9278H1178.05V85.7671H1169.79V94.0752H1164.95Z" fill="black" fill-opacity="0.03"/>
<path d="M1200.64 94.0752V85.7671H1192.33V80.9278H1200.64V72.6626H1205.48V80.9278H1213.74V85.7671H1205.48V94.0752H1200.64Z" fill="black" fill-opacity="0.03"/>
<path d="M1236.32 94.0752V85.7671H1228.02V80.9278H1236.32V72.6626H1241.16V80.9278H1249.43V85.7671H1241.16V94.0752H1236.32Z" fill="black" fill-opacity="0.03"/>
<path d="M1272.01 94.0752V85.7671H1263.7V80.9278H1272.01V72.6626H1276.85V80.9278H1285.12V85.7671H1276.85V94.0752H1272.01Z" fill="black" fill-opacity="0.03"/>
<path d="M1307.7 94.0752V85.7671H1299.39V80.9278H1307.7V72.6626H1312.54V80.9278H1320.8V85.7671H1312.54V94.0752H1307.7Z" fill="black" fill-opacity="0.03"/>
<path d="M1343.39 94.0752V85.7671H1335.08V80.9278H1343.39V72.6626H1348.23V80.9278H1356.49V85.7671H1348.23V94.0752H1343.39Z" fill="black" fill-opacity="0.03"/>
<path d="M1379.08 94.0752V85.7671H1370.77V80.9278H1379.08V72.6626H1383.91V80.9278H1392.18V85.7671H1383.91V94.0752H1379.08Z" fill="black" fill-opacity="0.03"/>
<path d="M1414.76 94.0752V85.7671H1406.45V80.9278H1414.76V72.6626H1419.6V80.9278H1427.87V85.7671H1419.6V94.0752H1414.76Z" fill="black" fill-opacity="0.03"/>
<path d="M1450.45 94.0752V85.7671H1442.14V80.9278H1450.45V72.6626H1455.29V80.9278H1463.56V85.7671H1455.29V94.0752H1450.45Z" fill="black" fill-opacity="0.03"/>
<path d="M1486.14 94.0752V85.7671H1477.83V80.9278H1486.14V72.6626H1490.98V80.9278H1499.24V85.7671H1490.98V94.0752H1486.14Z" fill="black" fill-opacity="0.03"/>
<path d="M1521.83 94.0752V85.7671H1513.52V80.9278H1521.83V72.6626H1526.67V80.9278H1534.93V85.7671H1526.67V94.0752H1521.83Z" fill="black" fill-opacity="0.03"/>
<path d="M1557.51 94.0752V85.7671H1549.21V80.9278H1557.51V72.6626H1562.35V80.9278H1570.62V85.7671H1562.35V94.0752H1557.51Z" fill="black" fill-opacity="0.03"/>
<path d="M1593.2 94.0752V85.7671H1584.89V80.9278H1593.2V72.6626H1598.04V80.9278H1606.31V85.7671H1598.04V94.0752H1593.2Z" fill="black" fill-opacity="0.03"/>
<path d="M1628.89 94.0752V85.7671H1620.58V80.9278H1628.89V72.6626H1633.73V80.9278H1641.99V85.7671H1633.73V94.0752H1628.89Z" fill="black" fill-opacity="0.03"/>
<path d="M1664.58 94.0752V85.7671H1656.27V80.9278H1664.58V72.6626H1669.42V80.9278H1677.68V85.7671H1669.42V94.0752H1664.58Z" fill="black" fill-opacity="0.03"/>
<path d="M1700.26 94.0752V85.7671H1691.96V80.9278H1700.26V72.6626H1705.1V80.9278H1713.37V85.7671H1705.1V94.0752H1700.26Z" fill="black" fill-opacity="0.03"/>
<path d="M1735.95 94.0752V85.7671H1727.64V80.9278H1735.95V72.6626H1740.79V80.9278H1749.06V85.7671H1740.79V94.0752H1735.95Z" fill="black" fill-opacity="0.03"/>
<path d="M1771.64 94.0752V85.7671H1763.33V80.9278H1771.64V72.6626H1776.48V80.9278H1784.74V85.7671H1776.48V94.0752H1771.64Z" fill="black" fill-opacity="0.03"/>
<path d="M1807.33 94.0752V85.7671H1799.02V80.9278H1807.33V72.6626H1812.17V80.9278H1820.43V85.7671H1812.17V94.0752H1807.33Z" fill="black" fill-opacity="0.03"/>
<path d="M-83.7217 127.423V120.499H-90.6452V116.467H-83.7217V109.579H-79.689V116.467H-72.8013V120.499H-79.689V127.423H-83.7217Z" fill="black" fill-opacity="0.03"/>
<path d="M-48.034 127.423V120.499H-54.9574V116.467H-48.034V109.579H-44.0013V116.467H-37.1136V120.499H-44.0013V127.423H-48.034Z" fill="black" fill-opacity="0.03"/>
<path d="M-12.3463 127.423V120.499H-19.2697V116.467H-12.3463V109.579H-8.31356V116.467H-1.42583V120.499H-8.31356V127.423H-12.3463Z" fill="black" fill-opacity="0.03"/>
<path d="M23.3415 127.423V120.499H16.418V116.467H23.3415V109.579H27.3742V116.467H34.2619V120.499H27.3742V127.423H23.3415Z" fill="black" fill-opacity="0.03"/>
<path d="M59.0292 127.423V120.499H52.1058V116.467H59.0292V109.579H63.0619V116.467H69.9496V120.499H63.0619V127.423H59.0292Z" fill="black" fill-opacity="0.03"/>
<path d="M94.7169 127.423V120.499H87.7935V116.467H94.7169V109.579H98.7496V116.467H105.637V120.499H98.7496V127.423H94.7169Z" fill="black" fill-opacity="0.03"/>
<path d="M130.405 127.423V120.499H123.481V116.467H130.405V109.579H134.437V116.467H141.325V120.499H134.437V127.423H130.405Z" fill="black" fill-opacity="0.03"/>
<path d="M166.092 127.423V120.499H159.169V116.467H166.092V109.579H170.125V116.467H177.013V120.499H170.125V127.423H166.092Z" fill="black" fill-opacity="0.03"/>
<path d="M201.78 127.423V120.499H194.857V116.467H201.78V109.579H205.813V116.467H212.701V120.499H205.813V127.423H201.78Z" fill="black" fill-opacity="0.03"/>
<path d="M237.468 127.423V120.499H230.544V116.467H237.468V109.579H241.501V116.467H248.388V120.499H241.501V127.423H237.468Z" fill="black" fill-opacity="0.03"/>
<path d="M273.156 127.423V120.499H266.232V116.467H273.156V109.579H277.188V116.467H284.076V120.499H277.188V127.423H273.156Z" fill="black" fill-opacity="0.03"/>
<path d="M308.843 127.423V120.499H301.92V116.467H308.843V109.579H312.876V116.467H319.764V120.499H312.876V127.423H308.843Z" fill="black" fill-opacity="0.03"/>
<path d="M344.531 127.423V120.499H337.608V116.467H344.531V109.579H348.564V116.467H355.451V120.499H348.564V127.423H344.531Z" fill="black" fill-opacity="0.03"/>
<path d="M380.219 127.423V120.499H373.295V116.467H380.219V109.579H384.252V116.467H391.139V120.499H384.252V127.423H380.219Z" fill="black" fill-opacity="0.03"/>
<path d="M415.907 127.423V120.499H408.983V116.467H415.907V109.579H419.939V116.467H426.827V120.499H419.939V127.423H415.907Z" fill="black" fill-opacity="0.03"/>
<path d="M451.594 127.423V120.499H444.671V116.467H451.594V109.579H455.627V116.467H462.515V120.499H455.627V127.423H451.594Z" fill="black" fill-opacity="0.03"/>
<path d="M487.282 127.423V120.499H480.359V116.467H487.282V109.579H491.315V116.467H498.202V120.499H491.315V127.423H487.282Z" fill="black" fill-opacity="0.03"/>
<path d="M522.97 127.423V120.499H516.046V116.467H522.97V109.579H527.002V116.467H533.89V120.499H527.002V127.423H522.97Z" fill="black" fill-opacity="0.03"/>
<path d="M558.657 127.423V120.499H551.734V116.467H558.657V109.579H562.69V116.467H569.578V120.499H562.69V127.423H558.657Z" fill="black" fill-opacity="0.03"/>
<path d="M594.345 127.423V120.499H587.422V116.467H594.345V109.579H598.378V116.467H605.266V120.499H598.378V127.423H594.345Z" fill="black" fill-opacity="0.03"/>
<path d="M630.033 127.423V120.499H623.109V116.467H630.033V109.579H634.066V116.467H640.953V120.499H634.066V127.423H630.033Z" fill="black" fill-opacity="0.03"/>
<path d="M665.721 127.423V120.499H658.797V116.467H665.721V109.579H669.753V116.467H676.641V120.499H669.753V127.423H665.721Z" fill="black" fill-opacity="0.03"/>
<path d="M701.408 127.423V120.499H694.485V116.467H701.408V109.579H705.441V116.467H712.329V120.499H705.441V127.423H701.408Z" fill="black" fill-opacity="0.03"/>
<path d="M737.096 127.423V120.499H730.173V116.467H737.096V109.579H741.129V116.467H748.017V120.499H741.129V127.423H737.096Z" fill="black" fill-opacity="0.03"/>
<path d="M772.784 127.423V120.499H765.86V116.467H772.784V109.579H776.817V116.467H783.704V120.499H776.817V127.423H772.784Z" fill="black" fill-opacity="0.03"/>
<path d="M808.472 127.423V120.499H801.548V116.467H808.472V109.579H812.504V116.467H819.392V120.499H812.504V127.423H808.472Z" fill="black" fill-opacity="0.03"/>
<path d="M844.159 127.423V120.499H837.236V116.467H844.159V109.579H848.192V116.467H855.08V120.499H848.192V127.423H844.159Z" fill="black" fill-opacity="0.03"/>
<path d="M879.847 127.423V120.499H872.924V116.467H879.847V109.579H883.88V116.467H890.767V120.499H883.88V127.423H879.847Z" fill="black" fill-opacity="0.03"/>
<path d="M915.535 127.423V120.499H908.611V116.467H915.535V109.579H919.568V116.467H926.455V120.499H919.568V127.423H915.535Z" fill="black" fill-opacity="0.03"/>
<path d="M951.222 127.423V120.499H944.299V116.467H951.222V109.579H955.255V116.467H962.143V120.499H955.255V127.423H951.222Z" fill="black" fill-opacity="0.03"/>
<path d="M986.91 127.423V120.499H979.987V116.467H986.91V109.579H990.943V116.467H997.831V120.499H990.943V127.423H986.91Z" fill="black" fill-opacity="0.03"/>
<path d="M1022.6 127.423V120.499H1015.67V116.467H1022.6V109.579H1026.63V116.467H1033.52V120.499H1026.63V127.423H1022.6Z" fill="black" fill-opacity="0.03"/>
<path d="M1058.29 127.423V120.499H1051.36V116.467H1058.29V109.579H1062.32V116.467H1069.21V120.499H1062.32V127.423H1058.29Z" fill="black" fill-opacity="0.03"/>
<path d="M1093.97 127.423V120.499H1087.05V116.467H1093.97V109.579H1098.01V116.467H1104.89V120.499H1098.01V127.423H1093.97Z" fill="black" fill-opacity="0.03"/>
<path d="M1129.66 127.423V120.499H1122.74V116.467H1129.66V109.579H1133.69V116.467H1140.58V120.499H1133.69V127.423H1129.66Z" fill="black" fill-opacity="0.03"/>
<path d="M1165.35 127.423V120.499H1158.43V116.467H1165.35V109.579H1169.38V116.467H1176.27V120.499H1169.38V127.423H1165.35Z" fill="black" fill-opacity="0.03"/>
<path d="M1201.04 127.423V120.499H1194.11V116.467H1201.04V109.579H1205.07V116.467H1211.96V120.499H1205.07V127.423H1201.04Z" fill="black" fill-opacity="0.03"/>
<path d="M1236.72 127.423V120.499H1229.8V116.467H1236.72V109.579H1240.76V116.467H1247.64V120.499H1240.76V127.423H1236.72Z" fill="black" fill-opacity="0.03"/>
<path d="M1272.41 127.423V120.499H1265.49V116.467H1272.41V109.579H1276.44V116.467H1283.33V120.499H1276.44V127.423H1272.41Z" fill="black" fill-opacity="0.03"/>
<path d="M1308.1 127.423V120.499H1301.18V116.467H1308.1V109.579H1312.13V116.467H1319.02V120.499H1312.13V127.423H1308.1Z" fill="black" fill-opacity="0.03"/>
<path d="M1343.79 127.423V120.499H1336.86V116.467H1343.79V109.579H1347.82V116.467H1354.71V120.499H1347.82V127.423H1343.79Z" fill="black" fill-opacity="0.03"/>
<path d="M1379.48 127.423V120.499H1372.55V116.467H1379.48V109.579H1383.51V116.467H1390.4V120.499H1383.51V127.423H1379.48Z" fill="black" fill-opacity="0.03"/>
<path d="M1415.16 127.423V120.499H1408.24V116.467H1415.16V109.579H1419.2V116.467H1426.08V120.499H1419.2V127.423H1415.16Z" fill="black" fill-opacity="0.03"/>
<path d="M1450.85 127.423V120.499H1443.93V116.467H1450.85V109.579H1454.88V116.467H1461.77V120.499H1454.88V127.423H1450.85Z" fill="black" fill-opacity="0.03"/>
<path d="M1486.54 127.423V120.499H1479.62V116.467H1486.54V109.579H1490.57V116.467H1497.46V120.499H1490.57V127.423H1486.54Z" fill="black" fill-opacity="0.03"/>
<path d="M1522.23 127.423V120.499H1515.3V116.467H1522.23V109.579H1526.26V116.467H1533.15V120.499H1526.26V127.423H1522.23Z" fill="black" fill-opacity="0.03"/>
<path d="M1557.91 127.423V120.499H1550.99V116.467H1557.91V109.579H1561.95V116.467H1568.83V120.499H1561.95V127.423H1557.91Z" fill="black" fill-opacity="0.03"/>
<path d="M1593.6 127.423V120.499H1586.68V116.467H1593.6V109.579H1597.63V116.467H1604.52V120.499H1597.63V127.423H1593.6Z" fill="black" fill-opacity="0.03"/>
<path d="M1629.29 127.423V120.499H1622.37V116.467H1629.29V109.579H1633.32V116.467H1640.21V120.499H1633.32V127.423H1629.29Z" fill="black" fill-opacity="0.03"/>
<path d="M1664.98 127.423V120.499H1658.05V116.467H1664.98V109.579H1669.01V116.467H1675.9V120.499H1669.01V127.423H1664.98Z" fill="black" fill-opacity="0.03"/>
<path d="M1700.66 127.423V120.499H1693.74V116.467H1700.66V109.579H1704.7V116.467H1711.59V120.499H1704.7V127.423H1700.66Z" fill="black" fill-opacity="0.03"/>
<path d="M1736.35 127.423V120.499H1729.43V116.467H1736.35V109.579H1740.39V116.467H1747.27V120.499H1740.39V127.423H1736.35Z" fill="black" fill-opacity="0.03"/>
<path d="M1772.04 127.423V120.499H1765.12V116.467H1772.04V109.579H1776.07V116.467H1782.96V120.499H1776.07V127.423H1772.04Z" fill="black" fill-opacity="0.03"/>
<path d="M1807.73 127.423V120.499H1800.8V116.467H1807.73V109.579H1811.76V116.467H1818.65V120.499H1811.76V127.423H1807.73Z" fill="black" fill-opacity="0.03"/>
<path d="M-83.3215 159.6V154.061H-88.8602V150.835H-83.3215V145.325H-80.0953V150.835H-74.5851V154.061H-80.0953V159.6H-83.3215Z" fill="black" fill-opacity="0.03"/>
<path d="M-47.6338 159.6V154.061H-53.1725V150.835H-47.6338V145.325H-44.4076V150.835H-38.8974V154.061H-44.4076V159.6H-47.6338Z" fill="black" fill-opacity="0.03"/>
<path d="M-11.946 159.6V154.061H-17.4848V150.835H-11.946V145.325H-8.71985V150.835H-3.20966V154.061H-8.71985V159.6H-11.946Z" fill="black" fill-opacity="0.03"/>
<path d="M23.7417 159.6V154.061H18.203V150.835H23.7417V145.325H26.9679V150.835H32.4781V154.061H26.9679V159.6H23.7417Z" fill="black" fill-opacity="0.03"/>
<path d="M59.4294 159.6V154.061H53.8907V150.835H59.4294V145.325H62.6556V150.835H68.1658V154.061H62.6556V159.6H59.4294Z" fill="black" fill-opacity="0.03"/>
<path d="M95.1172 159.6V154.061H89.5784V150.835H95.1172V145.325H98.3434V150.835H103.854V154.061H98.3434V159.6H95.1172Z" fill="black" fill-opacity="0.03"/>
<path d="M130.805 159.6V154.061H125.266V150.835H130.805V145.325H134.031V150.835H139.541V154.061H134.031V159.6H130.805Z" fill="black" fill-opacity="0.03"/>
<path d="M166.493 159.6V154.061H160.954V150.835H166.493V145.325H169.719V150.835H175.229V154.061H169.719V159.6H166.493Z" fill="black" fill-opacity="0.03"/>
<path d="M202.18 159.6V154.061H196.642V150.835H202.18V145.325H205.407V150.835H210.917V154.061H205.407V159.6H202.18Z" fill="black" fill-opacity="0.03"/>
<path d="M237.868 159.6V154.061H232.329V150.835H237.868V145.325H241.094V150.835H246.604V154.061H241.094V159.6H237.868Z" fill="black" fill-opacity="0.03"/>
<path d="M273.556 159.6V154.061H268.017V150.835H273.556V145.325H276.782V150.835H282.292V154.061H276.782V159.6H273.556Z" fill="black" fill-opacity="0.03"/>
<path d="M309.244 159.6V154.061H303.705V150.835H309.244V145.325H312.47V150.835H317.98V154.061H312.47V159.6H309.244Z" fill="black" fill-opacity="0.03"/>
<path d="M344.931 159.6V154.061H339.393V150.835H344.931V145.325H348.157V150.835H353.668V154.061H348.157V159.6H344.931Z" fill="black" fill-opacity="0.03"/>
<path d="M380.619 159.6V154.061H375.08V150.835H380.619V145.325H383.845V150.835H389.355V154.061H383.845V159.6H380.619Z" fill="black" fill-opacity="0.03"/>
<path d="M416.307 159.6V154.061H410.768V150.835H416.307V145.325H419.533V150.835H425.043V154.061H419.533V159.6H416.307Z" fill="black" fill-opacity="0.03"/>
<path d="M451.995 159.6V154.061H446.456V150.835H451.995V145.325H455.221V150.835H460.731V154.061H455.221V159.6H451.995Z" fill="black" fill-opacity="0.03"/>
<path d="M487.682 159.6V154.061H482.143V150.835H487.682V145.325H490.908V150.835H496.419V154.061H490.908V159.6H487.682Z" fill="black" fill-opacity="0.03"/>
<path d="M523.37 159.6V154.061H517.831V150.835H523.37V145.325H526.596V150.835H532.106V154.061H526.596V159.6H523.37Z" fill="black" fill-opacity="0.03"/>
<path d="M559.058 159.6V154.061H553.519V150.835H559.058V145.325H562.284V150.835H567.794V154.061H562.284V159.6H559.058Z" fill="black" fill-opacity="0.03"/>
<path d="M594.745 159.6V154.061H589.207V150.835H594.745V145.325H597.972V150.835H603.482V154.061H597.972V159.6H594.745Z" fill="black" fill-opacity="0.03"/>
<path d="M630.433 159.6V154.061H624.894V150.835H630.433V145.325H633.659V150.835H639.169V154.061H633.659V159.6H630.433Z" fill="black" fill-opacity="0.03"/>
<path d="M666.121 159.6V154.061H660.582V150.835H666.121V145.325H669.347V150.835H674.857V154.061H669.347V159.6H666.121Z" fill="black" fill-opacity="0.03"/>
<path d="M701.809 159.6V154.061H696.27V150.835H701.809V145.325H705.035V150.835H710.545V154.061H705.035V159.6H701.809Z" fill="black" fill-opacity="0.03"/>
<path d="M737.496 159.6V154.061H731.958V150.835H737.496V145.325H740.723V150.835H746.233V154.061H740.723V159.6H737.496Z" fill="black" fill-opacity="0.03"/>
<path d="M773.184 159.6V154.061H767.645V150.835H773.184V145.325H776.41V150.835H781.92V154.061H776.41V159.6H773.184Z" fill="black" fill-opacity="0.03"/>
<path d="M808.872 159.6V154.061H803.333V150.835H808.872V145.325H812.098V150.835H817.608V154.061H812.098V159.6H808.872Z" fill="black" fill-opacity="0.03"/>
<path d="M844.56 159.6V154.061H839.021V150.835H844.56V145.325H847.786V150.835H853.296V154.061H847.786V159.6H844.56Z" fill="black" fill-opacity="0.03"/>
<path d="M880.247 159.6V154.061H874.709V150.835H880.247V145.325H883.473V150.835H888.984V154.061H883.473V159.6H880.247Z" fill="black" fill-opacity="0.03"/>
<path d="M915.935 159.6V154.061H910.396V150.835H915.935V145.325H919.161V150.835H924.671V154.061H919.161V159.6H915.935Z" fill="black" fill-opacity="0.03"/>
<path d="M951.623 159.6V154.061H946.084V150.835H951.623V145.325H954.849V150.835H960.359V154.061H954.849V159.6H951.623Z" fill="black" fill-opacity="0.03"/>
<path d="M987.311 159.6V154.061H981.772V150.835H987.311V145.325H990.537V150.835H996.047V154.061H990.537V159.6H987.311Z" fill="black" fill-opacity="0.03"/>
<path d="M1023 159.6V154.061H1017.46V150.835H1023V145.325H1026.22V150.835H1031.73V154.061H1026.22V159.6H1023Z" fill="black" fill-opacity="0.03"/>
<path d="M1058.69 159.6V154.061H1053.15V150.835H1058.69V145.325H1061.91V150.835H1067.42V154.061H1061.91V159.6H1058.69Z" fill="black" fill-opacity="0.03"/>
<path d="M1094.37 159.6V154.061H1088.83V150.835H1094.37V145.325H1097.6V150.835H1103.11V154.061H1097.6V159.6H1094.37Z" fill="black" fill-opacity="0.03"/>
<path d="M1130.06 159.6V154.061H1124.52V150.835H1130.06V145.325H1133.29V150.835H1138.8V154.061H1133.29V159.6H1130.06Z" fill="black" fill-opacity="0.03"/>
<path d="M1165.75 159.6V154.061H1160.21V150.835H1165.75V145.325H1168.98V150.835H1174.49V154.061H1168.98V159.6H1165.75Z" fill="black" fill-opacity="0.03"/>
<path d="M1201.44 159.6V154.061H1195.9V150.835H1201.44V145.325H1204.66V150.835H1210.17V154.061H1204.66V159.6H1201.44Z" fill="black" fill-opacity="0.03"/>
<path d="M1237.12 159.6V154.061H1231.59V150.835H1237.12V145.325H1240.35V150.835H1245.86V154.061H1240.35V159.6H1237.12Z" fill="black" fill-opacity="0.03"/>
<path d="M1272.81 159.6V154.061H1267.27V150.835H1272.81V145.325H1276.04V150.835H1281.55V154.061H1276.04V159.6H1272.81Z" fill="black" fill-opacity="0.03"/>
<path d="M1308.5 159.6V154.061H1302.96V150.835H1308.5V145.325H1311.73V150.835H1317.24V154.061H1311.73V159.6H1308.5Z" fill="black" fill-opacity="0.03"/>
<path d="M1344.19 159.6V154.061H1338.65V150.835H1344.19V145.325H1347.41V150.835H1352.92V154.061H1347.41V159.6H1344.19Z" fill="black" fill-opacity="0.03"/>
<path d="M1379.88 159.6V154.061H1374.34V150.835H1379.88V145.325H1383.1V150.835H1388.61V154.061H1383.1V159.6H1379.88Z" fill="black" fill-opacity="0.03"/>
<path d="M1415.56 159.6V154.061H1410.02V150.835H1415.56V145.325H1418.79V150.835H1424.3V154.061H1418.79V159.6H1415.56Z" fill="black" fill-opacity="0.03"/>
<path d="M1451.25 159.6V154.061H1445.71V150.835H1451.25V145.325H1454.48V150.835H1459.99V154.061H1454.48V159.6H1451.25Z" fill="black" fill-opacity="0.03"/>
<path d="M1486.94 159.6V154.061H1481.4V150.835H1486.94V145.325H1490.16V150.835H1495.68V154.061H1490.16V159.6H1486.94Z" fill="black" fill-opacity="0.03"/>
<path d="M1522.63 159.6V154.061H1517.09V150.835H1522.63V145.325H1525.85V150.835H1531.36V154.061H1525.85V159.6H1522.63Z" fill="black" fill-opacity="0.03"/>
<path d="M1558.31 159.6V154.061H1552.78V150.835H1558.31V145.325H1561.54V150.835H1567.05V154.061H1561.54V159.6H1558.31Z" fill="black" fill-opacity="0.03"/>
<path d="M1594 159.6V154.061H1588.46V150.835H1594V145.325H1597.23V150.835H1602.74V154.061H1597.23V159.6H1594Z" fill="black" fill-opacity="0.03"/>
<path d="M1629.69 159.6V154.061H1624.15V150.835H1629.69V145.325H1632.92V150.835H1638.43V154.061H1632.92V159.6H1629.69Z" fill="black" fill-opacity="0.03"/>
<path d="M1665.38 159.6V154.061H1659.84V150.835H1665.38V145.325H1668.6V150.835H1674.11V154.061H1668.6V159.6H1665.38Z" fill="black" fill-opacity="0.03"/>
<path d="M1701.07 159.6V154.061H1695.53V150.835H1701.07V145.325H1704.29V150.835H1709.8V154.061H1704.29V159.6H1701.07Z" fill="black" fill-opacity="0.03"/>
<path d="M1736.75 159.6V154.061H1731.21V150.835H1736.75V145.325H1739.98V150.835H1745.49V154.061H1739.98V159.6H1736.75Z" fill="black" fill-opacity="0.03"/>
<path d="M1772.44 159.6V154.061H1766.9V150.835H1772.44V145.325H1775.67V150.835H1781.18V154.061H1775.67V159.6H1772.44Z" fill="black" fill-opacity="0.03"/>
<path d="M1808.13 159.6V154.061H1802.59V150.835H1808.13V145.325H1811.35V150.835H1816.86V154.061H1811.35V159.6H1808.13Z" fill="black" fill-opacity="0.03"/>
<path d="M-82.9212 192.948V188.794H-87.0753V186.374H-82.9212V182.241H-80.5016V186.374H-76.369V188.794H-80.5016V192.948H-82.9212Z" fill="black" fill-opacity="0.03"/>
<path d="M-47.2335 192.948V188.794H-51.3875V186.374H-47.2335V182.241H-44.8139V186.374H-40.6812V188.794H-44.8139V192.948H-47.2335Z" fill="black" fill-opacity="0.03"/>
<path d="M-11.5458 192.948V188.794H-15.6998V186.374H-11.5458V182.241H-9.12613V186.374H-4.99349V188.794H-9.12613V192.948H-11.5458Z" fill="black" fill-opacity="0.03"/>
<path d="M24.142 192.948V188.794H19.9879V186.374H24.142V182.241H26.5616V186.374H30.6942V188.794H26.5616V192.948H24.142Z" fill="black" fill-opacity="0.03"/>
<path d="M59.8297 192.948V188.794H55.6756V186.374H59.8297V182.241H62.2493V186.374H66.382V188.794H62.2493V192.948H59.8297Z" fill="black" fill-opacity="0.03"/>
<path d="M95.5174 192.948V188.794H91.3634V186.374H95.5174V182.241H97.9371V186.374H102.07V188.794H97.9371V192.948H95.5174Z" fill="black" fill-opacity="0.03"/>
<path d="M131.205 192.948V188.794H127.051V186.374H131.205V182.241H133.625V186.374H137.757V188.794H133.625V192.948H131.205Z" fill="black" fill-opacity="0.03"/>
<path d="M166.893 192.948V188.794H162.739V186.374H166.893V182.241H169.313V186.374H173.445V188.794H169.313V192.948H166.893Z" fill="black" fill-opacity="0.03"/>
<path d="M202.581 192.948V188.794H198.427V186.374H202.581V182.241H205V186.374H209.133V188.794H205V192.948H202.581Z" fill="black" fill-opacity="0.03"/>
<path d="M238.268 192.948V188.794H234.114V186.374H238.268V182.241H240.688V186.374H244.821V188.794H240.688V192.948H238.268Z" fill="black" fill-opacity="0.03"/>
<path d="M273.956 192.948V188.794H269.802V186.374H273.956V182.241H276.376V186.374H280.508V188.794H276.376V192.948H273.956Z" fill="black" fill-opacity="0.03"/>
<path d="M309.644 192.948V188.794H305.49V186.374H309.644V182.241H312.063V186.374H316.196V188.794H312.063V192.948H309.644Z" fill="black" fill-opacity="0.03"/>
<path d="M345.332 192.948V188.794H341.178V186.374H345.332V182.241H347.751V186.374H351.884V188.794H347.751V192.948H345.332Z" fill="black" fill-opacity="0.03"/>
<path d="M381.019 192.948V188.794H376.865V186.374H381.019V182.241H383.439V186.374H387.572V188.794H383.439V192.948H381.019Z" fill="black" fill-opacity="0.03"/>
<path d="M416.707 192.948V188.794H412.553V186.374H416.707V182.241H419.127V186.374H423.259V188.794H419.127V192.948H416.707Z" fill="black" fill-opacity="0.03"/>
<path d="M452.395 192.948V188.794H448.241V186.374H452.395V182.241H454.814V186.374H458.947V188.794H454.814V192.948H452.395Z" fill="black" fill-opacity="0.03"/>
<path d="M488.082 192.948V188.794H483.928V186.374H488.082V182.241H490.502V186.374H494.635V188.794H490.502V192.948H488.082Z" fill="black" fill-opacity="0.03"/>
<path d="M523.77 192.948V188.794H519.616V186.374H523.77V182.241H526.19V186.374H530.323V188.794H526.19V192.948H523.77Z" fill="black" fill-opacity="0.03"/>
<path d="M559.458 192.948V188.794H555.304V186.374H559.458V182.241H561.878V186.374H566.01V188.794H561.878V192.948H559.458Z" fill="black" fill-opacity="0.03"/>
<path d="M595.146 192.948V188.794H590.992V186.374H595.146V182.241H597.565V186.374H601.698V188.794H597.565V192.948H595.146Z" fill="black" fill-opacity="0.03"/>
<path d="M630.833 192.948V188.794H626.679V186.374H630.833V182.241H633.253V186.374H637.386V188.794H633.253V192.948H630.833Z" fill="black" fill-opacity="0.03"/>
<path d="M666.521 192.948V188.794H662.367V186.374H666.521V182.241H668.941V186.374H673.073V188.794H668.941V192.948H666.521Z" fill="black" fill-opacity="0.03"/>
<path d="M702.209 192.948V188.794H698.055V186.374H702.209V182.241H704.629V186.374H708.761V188.794H704.629V192.948H702.209Z" fill="black" fill-opacity="0.03"/>
<path d="M737.897 192.948V188.794H733.743V186.374H737.897V182.241H740.316V186.374H744.449V188.794H740.316V192.948H737.897Z" fill="black" fill-opacity="0.03"/>
<path d="M773.584 192.948V188.794H769.43V186.374H773.584V182.241H776.004V186.374H780.137V188.794H776.004V192.948H773.584Z" fill="black" fill-opacity="0.03"/>
<path d="M809.272 192.948V188.794H805.118V186.374H809.272V182.241H811.692V186.374H815.824V188.794H811.692V192.948H809.272Z" fill="black" fill-opacity="0.03"/>
<path d="M844.96 192.948V188.794H840.806V186.374H844.96V182.241H847.379V186.374H851.512V188.794H847.379V192.948H844.96Z" fill="black" fill-opacity="0.03"/>
<path d="M880.648 192.948V188.794H876.494V186.374H880.648V182.241H883.067V186.374H887.2V188.794H883.067V192.948H880.648Z" fill="black" fill-opacity="0.03"/>
<path d="M916.335 192.948V188.794H912.181V186.374H916.335V182.241H918.755V186.374H922.888V188.794H918.755V192.948H916.335Z" fill="black" fill-opacity="0.03"/>
<path d="M952.023 192.948V188.794H947.869V186.374H952.023V182.241H954.443V186.374H958.575V188.794H954.443V192.948H952.023Z" fill="black" fill-opacity="0.03"/>
<path d="M987.711 192.948V188.794H983.557V186.374H987.711V182.241H990.13V186.374H994.263V188.794H990.13V192.948H987.711Z" fill="black" fill-opacity="0.03"/>
<path d="M1023.4 192.948V188.794H1019.24V186.374H1023.4V182.241H1025.82V186.374H1029.95V188.794H1025.82V192.948H1023.4Z" fill="black" fill-opacity="0.03"/>
<path d="M1059.09 192.948V188.794H1054.93V186.374H1059.09V182.241H1061.51V186.374H1065.64V188.794H1061.51V192.948H1059.09Z" fill="black" fill-opacity="0.03"/>
<path d="M1094.77 192.948V188.794H1090.62V186.374H1094.77V182.241H1097.19V186.374H1101.33V188.794H1097.19V192.948H1094.77Z" fill="black" fill-opacity="0.03"/>
<path d="M1130.46 192.948V188.794H1126.31V186.374H1130.46V182.241H1132.88V186.374H1137.01V188.794H1132.88V192.948H1130.46Z" fill="black" fill-opacity="0.03"/>
<path d="M1166.15 192.948V188.794H1162V186.374H1166.15V182.241H1168.57V186.374H1172.7V188.794H1168.57V192.948H1166.15Z" fill="black" fill-opacity="0.03"/>
<path d="M1201.84 192.948V188.794H1197.68V186.374H1201.84V182.241H1204.26V186.374H1208.39V188.794H1204.26V192.948H1201.84Z" fill="black" fill-opacity="0.03"/>
<path d="M1237.52 192.948V188.794H1233.37V186.374H1237.52V182.241H1239.94V186.374H1244.08V188.794H1239.94V192.948H1237.52Z" fill="black" fill-opacity="0.03"/>
<path d="M1273.21 192.948V188.794H1269.06V186.374H1273.21V182.241H1275.63V186.374H1279.76V188.794H1275.63V192.948H1273.21Z" fill="black" fill-opacity="0.03"/>
<path d="M1308.9 192.948V188.794H1304.75V186.374H1308.9V182.241H1311.32V186.374H1315.45V188.794H1311.32V192.948H1308.9Z" fill="black" fill-opacity="0.03"/>
<path d="M1344.59 192.948V188.794H1340.43V186.374H1344.59V182.241H1347.01V186.374H1351.14V188.794H1347.01V192.948H1344.59Z" fill="black" fill-opacity="0.03"/>
<path d="M1380.28 192.948V188.794H1376.12V186.374H1380.28V182.241H1382.7V186.374H1386.83V188.794H1382.7V192.948H1380.28Z" fill="black" fill-opacity="0.03"/>
<path d="M1415.96 192.948V188.794H1411.81V186.374H1415.96V182.241H1418.38V186.374H1422.52V188.794H1418.38V192.948H1415.96Z" fill="black" fill-opacity="0.03"/>
<path d="M1451.65 192.948V188.794H1447.5V186.374H1451.65V182.241H1454.07V186.374H1458.2V188.794H1454.07V192.948H1451.65Z" fill="black" fill-opacity="0.03"/>
<path d="M1487.34 192.948V188.794H1483.19V186.374H1487.34V182.241H1489.76V186.374H1493.89V188.794H1489.76V192.948H1487.34Z" fill="black" fill-opacity="0.03"/>
<path d="M1523.03 192.948V188.794H1518.87V186.374H1523.03V182.241H1525.45V186.374H1529.58V188.794H1525.45V192.948H1523.03Z" fill="black" fill-opacity="0.03"/>
<path d="M1558.71 192.948V188.794H1554.56V186.374H1558.71V182.241H1561.13V186.374H1565.27V188.794H1561.13V192.948H1558.71Z" fill="black" fill-opacity="0.03"/>
<path d="M1594.4 192.948V188.794H1590.25V186.374H1594.4V182.241H1596.82V186.374H1600.95V188.794H1596.82V192.948H1594.4Z" fill="black" fill-opacity="0.03"/>
<path d="M1630.09 192.948V188.794H1625.94V186.374H1630.09V182.241H1632.51V186.374H1636.64V188.794H1632.51V192.948H1630.09Z" fill="black" fill-opacity="0.03"/>
<path d="M1665.78 192.948V188.794H1661.62V186.374H1665.78V182.241H1668.2V186.374H1672.33V188.794H1668.2V192.948H1665.78Z" fill="black" fill-opacity="0.03"/>
<path d="M1701.47 192.948V188.794H1697.31V186.374H1701.47V182.241H1703.89V186.374H1708.02V188.794H1703.89V192.948H1701.47Z" fill="black" fill-opacity="0.03"/>
<path d="M1737.15 192.948V188.794H1733V186.374H1737.15V182.241H1739.57V186.374H1743.71V188.794H1739.57V192.948H1737.15Z" fill="black" fill-opacity="0.03"/>
<path d="M1772.84 192.948V188.794H1768.69V186.374H1772.84V182.241H1775.26V186.374H1779.39V188.794H1775.26V192.948H1772.84Z" fill="black" fill-opacity="0.03"/>
<path d="M1808.53 192.948V188.794H1804.37V186.374H1808.53V182.241H1810.95V186.374H1815.08V188.794H1810.95V192.948H1808.53Z" fill="black" fill-opacity="0.03"/>
<path d="M-82.521 225.125V222.356H-85.2903V220.743H-82.521V217.988H-80.9079V220.743H-78.1528V222.356H-80.9079V225.125H-82.521Z" fill="black" fill-opacity="0.03"/>
<path d="M-46.8332 225.125V222.356H-49.6026V220.743H-46.8332V217.988H-45.2201V220.743H-42.4651V222.356H-45.2201V225.125H-46.8332Z" fill="black" fill-opacity="0.03"/>
<path d="M-11.1455 225.125V222.356H-13.9149V220.743H-11.1455V217.988H-9.53241V220.743H-6.77732V222.356H-9.53241V225.125H-11.1455Z" fill="black" fill-opacity="0.03"/>
<path d="M24.5422 225.125V222.356H21.7729V220.743H24.5422V217.988H26.1553V220.743H28.9104V222.356H26.1553V225.125H24.5422Z" fill="black" fill-opacity="0.03"/>
<path d="M60.23 225.125V222.356H57.4606V220.743H60.23V217.988H61.843V220.743H64.5981V222.356H61.843V225.125H60.23Z" fill="black" fill-opacity="0.03"/>
<path d="M95.9177 225.125V222.356H93.1483V220.743H95.9177V217.988H97.5308V220.743H100.286V222.356H97.5308V225.125H95.9177Z" fill="black" fill-opacity="0.03"/>
<path d="M131.605 225.125V222.356H128.836V220.743H131.605V217.988H133.219V220.743H135.974V222.356H133.219V225.125H131.605Z" fill="black" fill-opacity="0.03"/>
<path d="M167.293 225.125V222.356H164.524V220.743H167.293V217.988H168.906V220.743H171.661V222.356H168.906V225.125H167.293Z" fill="black" fill-opacity="0.03"/>
<path d="M202.981 225.125V222.356H200.212V220.743H202.981V217.988H204.594V220.743H207.349V222.356H204.594V225.125H202.981Z" fill="black" fill-opacity="0.03"/>
<path d="M238.669 225.125V222.356H235.899V220.743H238.669V217.988H240.282V220.743H243.037V222.356H240.282V225.125H238.669Z" fill="black" fill-opacity="0.03"/>
<path d="M274.356 225.125V222.356H271.587V220.743H274.356V217.988H275.969V220.743H278.725V222.356H275.969V225.125H274.356Z" fill="black" fill-opacity="0.03"/>
<path d="M310.044 225.125V222.356H307.275V220.743H310.044V217.988H311.657V220.743H314.412V222.356H311.657V225.125H310.044Z" fill="black" fill-opacity="0.03"/>
<path d="M345.732 225.125V222.356H342.962V220.743H345.732V217.988H347.345V220.743H350.1V222.356H347.345V225.125H345.732Z" fill="black" fill-opacity="0.03"/>
<path d="M381.42 225.125V222.356H378.65V220.743H381.42V217.988H383.033V220.743H385.788V222.356H383.033V225.125H381.42Z" fill="black" fill-opacity="0.03"/>
<path d="M417.107 225.125V222.356H414.338V220.743H417.107V217.988H418.72V220.743H421.475V222.356H418.72V225.125H417.107Z" fill="black" fill-opacity="0.03"/>
<path d="M452.795 225.125V222.356H450.026V220.743H452.795V217.988H454.408V220.743H457.163V222.356H454.408V225.125H452.795Z" fill="black" fill-opacity="0.03"/>
<path d="M488.483 225.125V222.356H485.713V220.743H488.483V217.988H490.096V220.743H492.851V222.356H490.096V225.125H488.483Z" fill="black" fill-opacity="0.03"/>
<path d="M524.17 225.125V222.356H521.401V220.743H524.17V217.988H525.784V220.743H528.539V222.356H525.784V225.125H524.17Z" fill="black" fill-opacity="0.03"/>
<path d="M559.858 225.125V222.356H557.089V220.743H559.858V217.988H561.471V220.743H564.226V222.356H561.471V225.125H559.858Z" fill="black" fill-opacity="0.03"/>
<path d="M595.546 225.125V222.356H592.777V220.743H595.546V217.988H597.159V220.743H599.914V222.356H597.159V225.125H595.546Z" fill="black" fill-opacity="0.03"/>
<path d="M631.234 225.125V222.356H628.464V220.743H631.234V217.988H632.847V220.743H635.602V222.356H632.847V225.125H631.234Z" fill="black" fill-opacity="0.03"/>
<path d="M666.921 225.125V222.356H664.152V220.743H666.921V217.988H668.535V220.743H671.29V222.356H668.535V225.125H666.921Z" fill="black" fill-opacity="0.03"/>
<path d="M702.609 225.125V222.356H699.84V220.743H702.609V217.988H704.222V220.743H706.977V222.356H704.222V225.125H702.609Z" fill="black" fill-opacity="0.03"/>
<path d="M738.297 225.125V222.356H735.527V220.743H738.297V217.988H739.91V220.743H742.665V222.356H739.91V225.125H738.297Z" fill="black" fill-opacity="0.03"/>
<path d="M773.985 225.125V222.356H771.215V220.743H773.985V217.988H775.598V220.743H778.353V222.356H775.598V225.125H773.985Z" fill="black" fill-opacity="0.03"/>
<path d="M809.672 225.125V222.356H806.903V220.743H809.672V217.988H811.285V220.743H814.041V222.356H811.285V225.125H809.672Z" fill="black" fill-opacity="0.03"/>
<path d="M845.36 225.125V222.356H842.591V220.743H845.36V217.988H846.973V220.743H849.728V222.356H846.973V225.125H845.36Z" fill="black" fill-opacity="0.03"/>
<path d="M881.048 225.125V222.356H878.278V220.743H881.048V217.988H882.661V220.743H885.416V222.356H882.661V225.125H881.048Z" fill="black" fill-opacity="0.03"/>
<path d="M916.736 225.125V222.356H913.966V220.743H916.736V217.988H918.349V220.743H921.104V222.356H918.349V225.125H916.736Z" fill="black" fill-opacity="0.03"/>
<path d="M952.423 225.125V222.356H949.654V220.743H952.423V217.988H954.036V220.743H956.791V222.356H954.036V225.125H952.423Z" fill="black" fill-opacity="0.03"/>
<path d="M988.111 225.125V222.356H985.342V220.743H988.111V217.988H989.724V220.743H992.479V222.356H989.724V225.125H988.111Z" fill="black" fill-opacity="0.03"/>
<path d="M1023.8 225.125V222.356H1021.03V220.743H1023.8V217.988H1025.41V220.743H1028.17V222.356H1025.41V225.125H1023.8Z" fill="black" fill-opacity="0.03"/>
<path d="M1059.49 225.125V222.356H1056.72V220.743H1059.49V217.988H1061.1V220.743H1063.85V222.356H1061.1V225.125H1059.49Z" fill="black" fill-opacity="0.03"/>
<path d="M1095.17 225.125V222.356H1092.4V220.743H1095.17V217.988H1096.79V220.743H1099.54V222.356H1096.79V225.125H1095.17Z" fill="black" fill-opacity="0.03"/>
<path d="M1130.86 225.125V222.356H1128.09V220.743H1130.86V217.988H1132.48V220.743H1135.23V222.356H1132.48V225.125H1130.86Z" fill="black" fill-opacity="0.03"/>
<path d="M1166.55 225.125V222.356H1163.78V220.743H1166.55V217.988H1168.16V220.743H1170.92V222.356H1168.16V225.125H1166.55Z" fill="black" fill-opacity="0.03"/>
<path d="M1202.24 225.125V222.356H1199.47V220.743H1202.24V217.988H1203.85V220.743H1206.61V222.356H1203.85V225.125H1202.24Z" fill="black" fill-opacity="0.03"/>
<path d="M1237.93 225.125V222.356H1235.16V220.743H1237.93V217.988H1239.54V220.743H1242.29V222.356H1239.54V225.125H1237.93Z" fill="black" fill-opacity="0.03"/>
<path d="M1273.61 225.125V222.356H1270.84V220.743H1273.61V217.988H1275.23V220.743H1277.98V222.356H1275.23V225.125H1273.61Z" fill="black" fill-opacity="0.03"/>
<path d="M1309.3 225.125V222.356H1306.53V220.743H1309.3V217.988H1310.91V220.743H1313.67V222.356H1310.91V225.125H1309.3Z" fill="black" fill-opacity="0.03"/>
<path d="M1344.99 225.125V222.356H1342.22V220.743H1344.99V217.988H1346.6V220.743H1349.36V222.356H1346.6V225.125H1344.99Z" fill="black" fill-opacity="0.03"/>
<path d="M1380.68 225.125V222.356H1377.91V220.743H1380.68V217.988H1382.29V220.743H1385.04V222.356H1382.29V225.125H1380.68Z" fill="black" fill-opacity="0.03"/>
<path d="M1416.36 225.125V222.356H1413.59V220.743H1416.36V217.988H1417.98V220.743H1420.73V222.356H1417.98V225.125H1416.36Z" fill="black" fill-opacity="0.03"/>
<path d="M1452.05 225.125V222.356H1449.28V220.743H1452.05V217.988H1453.66V220.743H1456.42V222.356H1453.66V225.125H1452.05Z" fill="black" fill-opacity="0.03"/>
<path d="M1487.74 225.125V222.356H1484.97V220.743H1487.74V217.988H1489.35V220.743H1492.11V222.356H1489.35V225.125H1487.74Z" fill="black" fill-opacity="0.03"/>
<path d="M1523.43 225.125V222.356H1520.66V220.743H1523.43V217.988H1525.04V220.743H1527.8V222.356H1525.04V225.125H1523.43Z" fill="black" fill-opacity="0.03"/>
<path d="M1559.11 225.125V222.356H1556.35V220.743H1559.11V217.988H1560.73V220.743H1563.48V222.356H1560.73V225.125H1559.11Z" fill="black" fill-opacity="0.03"/>
<path d="M1594.8 225.125V222.356H1592.03V220.743H1594.8V217.988H1596.42V220.743H1599.17V222.356H1596.42V225.125H1594.8Z" fill="black" fill-opacity="0.03"/>
<path d="M1630.49 225.125V222.356H1627.72V220.743H1630.49V217.988H1632.1V220.743H1634.86V222.356H1632.1V225.125H1630.49Z" fill="black" fill-opacity="0.03"/>
<path d="M1666.18 225.125V222.356H1663.41V220.743H1666.18V217.988H1667.79V220.743H1670.55V222.356H1667.79V225.125H1666.18Z" fill="black" fill-opacity="0.03"/>
<path d="M1701.87 225.125V222.356H1699.1V220.743H1701.87V217.988H1703.48V220.743H1706.23V222.356H1703.48V225.125H1701.87Z" fill="black" fill-opacity="0.03"/>
<path d="M1737.55 225.125V222.356H1734.78V220.743H1737.55V217.988H1739.17V220.743H1741.92V222.356H1739.17V225.125H1737.55Z" fill="black" fill-opacity="0.03"/>
<path d="M1773.24 225.125V222.356H1770.47V220.743H1773.24V217.988H1774.85V220.743H1777.61V222.356H1774.85V225.125H1773.24Z" fill="black" fill-opacity="0.03"/>
<path d="M1808.93 225.125V222.356H1806.16V220.743H1808.93V217.988H1810.54V220.743H1813.3V222.356H1810.54V225.125H1808.93Z" fill="black" fill-opacity="0.03"/>
<path d="M-82.1207 258.473V257.088H-83.5054V256.282H-82.1207V254.904H-81.3142V256.282H-79.9366V257.088H-81.3142V258.473H-82.1207Z" fill="black" fill-opacity="0.03"/>
<path d="M-46.433 258.473V257.088H-47.8177V256.282H-46.433V254.904H-45.6264V256.282H-44.2489V257.088H-45.6264V258.473H-46.433Z" fill="black" fill-opacity="0.03"/>
<path d="M-10.7452 258.473V257.088H-12.1299V256.282H-10.7452V254.904H-9.9387V256.282H-8.56115V257.088H-9.9387V258.473H-10.7452Z" fill="black" fill-opacity="0.03"/>
<path d="M24.9425 258.473V257.088H23.5578V256.282H24.9425V254.904H25.749V256.282H27.1266V257.088H25.749V258.473H24.9425Z" fill="black" fill-opacity="0.03"/>
<path d="M60.6302 258.473V257.088H59.2455V256.282H60.6302V254.904H61.4368V256.282H62.8143V257.088H61.4368V258.473H60.6302Z" fill="black" fill-opacity="0.03"/>
<path d="M96.318 258.473V257.088H94.9333V256.282H96.318V254.904H97.1245V256.282H98.502V257.088H97.1245V258.473H96.318Z" fill="black" fill-opacity="0.03"/>
<path d="M132.006 258.473V257.088H130.621V256.282H132.006V254.904H132.812V256.282H134.19V257.088H132.812V258.473H132.006Z" fill="black" fill-opacity="0.03"/>
<path d="M167.693 258.473V257.088H166.309V256.282H167.693V254.904H168.5V256.282H169.878V257.088H168.5V258.473H167.693Z" fill="black" fill-opacity="0.03"/>
<path d="M203.381 258.473V257.088H201.996V256.282H203.381V254.904H204.188V256.282H205.565V257.088H204.188V258.473H203.381Z" fill="black" fill-opacity="0.03"/>
<path d="M239.069 258.473V257.088H237.684V256.282H239.069V254.904H239.875V256.282H241.253V257.088H239.875V258.473H239.069Z" fill="black" fill-opacity="0.03"/>
<path d="M274.757 258.473V257.088H273.372V256.282H274.757V254.904H275.563V256.282H276.941V257.088H275.563V258.473H274.757Z" fill="black" fill-opacity="0.03"/>
<path d="M310.444 258.473V257.088H309.06V256.282H310.444V254.904H311.251V256.282H312.628V257.088H311.251V258.473H310.444Z" fill="black" fill-opacity="0.03"/>
<path d="M346.132 258.473V257.088H344.747V256.282H346.132V254.904H346.939V256.282H348.316V257.088H346.939V258.473H346.132Z" fill="black" fill-opacity="0.03"/>
<path d="M381.82 258.473V257.088H380.435V256.282H381.82V254.904H382.626V256.282H384.004V257.088H382.626V258.473H381.82Z" fill="black" fill-opacity="0.03"/>
<path d="M417.508 258.473V257.088H416.123V256.282H417.508V254.904H418.314V256.282H419.692V257.088H418.314V258.473H417.508Z" fill="black" fill-opacity="0.03"/>
<path d="M453.195 258.473V257.088H451.811V256.282H453.195V254.904H454.002V256.282H455.379V257.088H454.002V258.473H453.195Z" fill="black" fill-opacity="0.03"/>
<path d="M488.883 258.473V257.088H487.498V256.282H488.883V254.904H489.69V256.282H491.067V257.088H489.69V258.473H488.883Z" fill="black" fill-opacity="0.03"/>
<path d="M524.571 258.473V257.088H523.186V256.282H524.571V254.904H525.377V256.282H526.755V257.088H525.377V258.473H524.571Z" fill="black" fill-opacity="0.03"/>
<path d="M560.259 258.473V257.088H558.874V256.282H560.259V254.904H561.065V256.282H562.443V257.088H561.065V258.473H560.259Z" fill="black" fill-opacity="0.03"/>
<path d="M595.946 258.473V257.088H594.562V256.282H595.946V254.904H596.753V256.282H598.13V257.088H596.753V258.473H595.946Z" fill="black" fill-opacity="0.03"/>
<path d="M631.634 258.473V257.088H630.249V256.282H631.634V254.904H632.44V256.282H633.818V257.088H632.44V258.473H631.634Z" fill="black" fill-opacity="0.03"/>
<path d="M667.322 258.473V257.088H665.937V256.282H667.322V254.904H668.128V256.282H669.506V257.088H668.128V258.473H667.322Z" fill="black" fill-opacity="0.03"/>
<path d="M703.009 258.473V257.088H701.625V256.282H703.009V254.904H703.816V256.282H705.194V257.088H703.816V258.473H703.009Z" fill="black" fill-opacity="0.03"/>
<path d="M738.697 258.473V257.088H737.312V256.282H738.697V254.904H739.504V256.282H740.881V257.088H739.504V258.473H738.697Z" fill="black" fill-opacity="0.03"/>
<path d="M774.385 258.473V257.088H773V256.282H774.385V254.904H775.191V256.282H776.569V257.088H775.191V258.473H774.385Z" fill="black" fill-opacity="0.03"/>
<path d="M810.073 258.473V257.088H808.688V256.282H810.073V254.904H810.879V256.282H812.257V257.088H810.879V258.473H810.073Z" fill="black" fill-opacity="0.03"/>
<path d="M845.76 258.473V257.088H844.376V256.282H845.76V254.904H846.567V256.282H847.944V257.088H846.567V258.473H845.76Z" fill="black" fill-opacity="0.03"/>
<path d="M881.448 258.473V257.088H880.063V256.282H881.448V254.904H882.255V256.282H883.632V257.088H882.255V258.473H881.448Z" fill="black" fill-opacity="0.03"/>
<path d="M917.136 258.473V257.088H915.751V256.282H917.136V254.904H917.942V256.282H919.32V257.088H917.942V258.473H917.136Z" fill="black" fill-opacity="0.03"/>
<path d="M952.824 258.473V257.088H951.439V256.282H952.824V254.904H953.63V256.282H955.008V257.088H953.63V258.473H952.824Z" fill="black" fill-opacity="0.03"/>
<path d="M988.511 258.473V257.088H987.127V256.282H988.511V254.904H989.318V256.282H990.695V257.088H989.318V258.473H988.511Z" fill="black" fill-opacity="0.03"/>
<path d="M1024.2 258.473V257.088H1022.81V256.282H1024.2V254.904H1025.01V256.282H1026.38V257.088H1025.01V258.473H1024.2Z" fill="black" fill-opacity="0.03"/>
<path d="M1059.89 258.473V257.088H1058.5V256.282H1059.89V254.904H1060.69V256.282H1062.07V257.088H1060.69V258.473H1059.89Z" fill="black" fill-opacity="0.03"/>
<path d="M1095.57 258.473V257.088H1094.19V256.282H1095.57V254.904H1096.38V256.282H1097.76V257.088H1096.38V258.473H1095.57Z" fill="black" fill-opacity="0.03"/>
<path d="M1131.26 258.473V257.088H1129.88V256.282H1131.26V254.904H1132.07V256.282H1133.45V257.088H1132.07V258.473H1131.26Z" fill="black" fill-opacity="0.03"/>
<path d="M1166.95 258.473V257.088H1165.57V256.282H1166.95V254.904H1167.76V256.282H1169.13V257.088H1167.76V258.473H1166.95Z" fill="black" fill-opacity="0.03"/>
<path d="M1202.64 258.473V257.088H1201.25V256.282H1202.64V254.904H1203.44V256.282H1204.82V257.088H1203.44V258.473H1202.64Z" fill="black" fill-opacity="0.03"/>
<path d="M1238.33 258.473V257.088H1236.94V256.282H1238.33V254.904H1239.13V256.282H1240.51V257.088H1239.13V258.473H1238.33Z" fill="black" fill-opacity="0.03"/>
<path d="M1274.01 258.473V257.088H1272.63V256.282H1274.01V254.904H1274.82V256.282H1276.2V257.088H1274.82V258.473H1274.01Z" fill="black" fill-opacity="0.03"/>
<path d="M1309.7 258.473V257.088H1308.32V256.282H1309.7V254.904H1310.51V256.282H1311.89V257.088H1310.51V258.473H1309.7Z" fill="black" fill-opacity="0.03"/>
<path d="M1345.39 258.473V257.088H1344V256.282H1345.39V254.904H1346.2V256.282H1347.57V257.088H1346.2V258.473H1345.39Z" fill="black" fill-opacity="0.03"/>
<path d="M1381.08 258.473V257.088H1379.69V256.282H1381.08V254.904H1381.88V256.282H1383.26V257.088H1381.88V258.473H1381.08Z" fill="black" fill-opacity="0.03"/>
<path d="M1416.76 258.473V257.088H1415.38V256.282H1416.76V254.904H1417.57V256.282H1418.95V257.088H1417.57V258.473H1416.76Z" fill="black" fill-opacity="0.03"/>
<path d="M1452.45 258.473V257.088H1451.07V256.282H1452.45V254.904H1453.26V256.282H1454.64V257.088H1453.26V258.473H1452.45Z" fill="black" fill-opacity="0.03"/>
<path d="M1488.14 258.473V257.088H1486.75V256.282H1488.14V254.904H1488.95V256.282H1490.32V257.088H1488.95V258.473H1488.14Z" fill="black" fill-opacity="0.03"/>
<path d="M1523.83 258.473V257.088H1522.44V256.282H1523.83V254.904H1524.63V256.282H1526.01V257.088H1524.63V258.473H1523.83Z" fill="black" fill-opacity="0.03"/>
<path d="M1559.51 258.473V257.088H1558.13V256.282H1559.51V254.904H1560.32V256.282H1561.7V257.088H1560.32V258.473H1559.51Z" fill="black" fill-opacity="0.03"/>
<path d="M1595.2 258.473V257.088H1593.82V256.282H1595.2V254.904H1596.01V256.282H1597.39V257.088H1596.01V258.473H1595.2Z" fill="black" fill-opacity="0.03"/>
<path d="M1630.89 258.473V257.088H1629.51V256.282H1630.89V254.904H1631.7V256.282H1633.07V257.088H1631.7V258.473H1630.89Z" fill="black" fill-opacity="0.03"/>
<path d="M1666.58 258.473V257.088H1665.19V256.282H1666.58V254.904H1667.38V256.282H1668.76V257.088H1667.38V258.473H1666.58Z" fill="black" fill-opacity="0.03"/>
<path d="M1702.27 258.473V257.088H1700.88V256.282H1702.27V254.904H1703.07V256.282H1704.45V257.088H1703.07V258.473H1702.27Z" fill="black" fill-opacity="0.03"/>
<path d="M1737.95 258.473V257.088H1736.57V256.282H1737.95V254.904H1738.76V256.282H1740.14V257.088H1738.76V258.473H1737.95Z" fill="black" fill-opacity="0.03"/>
<path d="M1773.64 258.473V257.088H1772.26V256.282H1773.64V254.904H1774.45V256.282H1775.83V257.088H1774.45V258.473H1773.64Z" fill="black" fill-opacity="0.03"/>
<path d="M1809.33 258.473V257.088H1807.94V256.282H1809.33V254.904H1810.14V256.282H1811.51V257.088H1810.14V258.473H1809.33Z" fill="black" fill-opacity="0.03"/>
</svg>
